<?xml version="1.0" encoding="UTF-8" standalone="no"?><!DOCTYPE svg PUBLIC "-//W3C//DTD SVG 1.1//EN" "http://www.w3.org/Graphics/SVG/1.1/DTD/svg11.dtd"><svg width="100%" height="100%" viewBox="0 0 2481 3508" version="1.1" xmlns="http://www.w3.org/2000/svg" xmlns:xlink="http://www.w3.org/1999/xlink" xml:space="preserve" xmlns:serif="http://www.serif.com/" style="fill-rule:evenodd;clip-rule:evenodd;stroke-linejoin:round;stroke-miterlimit:2;"><g><path d="M206.063,1503.81l3.818,-6.63l-7.659,-0l3.841,6.63Z" style="fill:#97bf8a;fill-rule:nonzero;"/><path d="M206.063,1496.26l3.818,-6.647l-7.659,-0l3.841,6.647Z" style="fill:#97bf8a;fill-rule:nonzero;"/><path d="M206.063,1488.69l3.818,-6.63l-7.659,-0l3.841,6.63Z" style="fill:#97bf8a;fill-rule:nonzero;"/><path d="M206.063,1481.12l3.818,-6.631l-7.659,0l3.841,6.631Z" style="fill:#97bf8a;fill-rule:nonzero;"/><path d="M206.063,1473.56l3.818,-6.647l-7.659,-0l3.841,6.647Z" style="fill:#97bf8a;fill-rule:nonzero;"/><path d="M206.063,1465.99l3.818,-6.63l-7.659,-0l3.841,6.63Z" style="fill:#97bf8a;fill-rule:nonzero;"/><path d="M206.063,1504.75l3.818,6.631l-7.659,-0l3.841,-6.631Z" style="fill:#86c0d1;fill-rule:nonzero;"/><path d="M206.063,1512.31l3.818,6.647l-7.659,-0l3.841,-6.647Z" style="fill:#86c0d1;fill-rule:nonzero;"/><path d="M206.063,1519.88l3.818,6.63l-7.659,-0l3.841,-6.63Z" style="fill:#86c0d1;fill-rule:nonzero;"/><path d="M206.063,1527.45l3.818,6.63l-7.659,0l3.841,-6.63Z" style="fill:#86c0d1;fill-rule:nonzero;"/><path d="M206.063,1624.87l3.818,-6.63l-7.659,-0l3.841,6.63Z" style="fill:#86c0d1;fill-rule:nonzero;"/><path d="M206.063,1617.31l3.818,-6.647l-7.659,0l3.841,6.647Z" style="fill:#86c0d1;fill-rule:nonzero;"/><path d="M206.063,1609.74l3.818,-6.63l-7.659,-0l3.841,6.63Z" style="fill:#86c0d1;fill-rule:nonzero;"/><path d="M206.063,1602.17l3.818,-6.631l-7.659,0l3.841,6.631Z" style="fill:#86c0d1;fill-rule:nonzero;"/><path d="M206.063,1594.62l3.818,-6.647l-7.659,-0l3.841,6.647Z" style="fill:#86c0d1;fill-rule:nonzero;"/><path d="M206.063,1625.79l3.818,6.63l-7.659,0l3.841,-6.63Z" style="fill:#7a9ace;fill-rule:nonzero;"/><path d="M206.063,1633.36l3.818,6.63l-7.659,0l3.841,-6.63Z" style="fill:#7a9ace;fill-rule:nonzero;"/><path d="M206.063,1640.92l3.818,6.647l-7.659,0l3.841,-6.647Z" style="fill:#7a9ace;fill-rule:nonzero;"/><path d="M206.063,1648.49l3.818,6.63l-7.659,0l3.841,-6.63Z" style="fill:#7a9ace;fill-rule:nonzero;"/><path d="M206.063,1656.06l3.818,6.631l-7.659,-0l3.841,-6.631Z" style="fill:#7a9ace;fill-rule:nonzero;"/><path d="M206.063,1776.17l3.818,-6.63l-7.659,-0l3.841,6.63Z" style="fill:#7a9ace;fill-rule:nonzero;"/><path d="M206.063,1768.62l3.818,-6.647l-7.659,-0l3.841,6.647Z" style="fill:#7a9ace;fill-rule:nonzero;"/><path d="M206.063,1761.05l3.818,-6.63l-7.659,-0l3.841,6.63Z" style="fill:#7a9ace;fill-rule:nonzero;"/><path d="M206.063,1753.48l3.818,-6.63l-7.659,0l3.841,6.63Z" style="fill:#7a9ace;fill-rule:nonzero;"/><path d="M206.063,1745.92l3.818,-6.647l-7.659,-0l3.841,6.647Z" style="fill:#7a9ace;fill-rule:nonzero;"/><path d="M206.063,1738.35l3.818,-6.631l-7.659,0l3.841,6.631Z" style="fill:#7a9ace;fill-rule:nonzero;"/><path d="M206.063,1730.78l3.818,-6.631l-7.659,0l3.841,6.631Z" style="fill:#7a9ace;fill-rule:nonzero;"/><path d="M206.063,1723.23l3.818,-6.647l-7.659,0l3.841,6.647Z" style="fill:#7a9ace;fill-rule:nonzero;"/><path d="M206.063,1777.1l3.818,6.631l-7.659,-0l3.841,-6.631Z" style="fill:#b4b4b4;fill-rule:nonzero;"/><path d="M206.063,1784.65l3.818,6.647l-7.659,-0l3.841,-6.647Z" style="fill:#b4b4b4;fill-rule:nonzero;"/><path d="M206.063,1912.33l3.818,-6.63l-7.659,-0l3.841,6.63Z" style="fill:#b4b4b4;fill-rule:nonzero;"/><path d="M206.063,1904.78l3.818,-6.647l-7.659,-0l3.841,6.647Z" style="fill:#b4b4b4;fill-rule:nonzero;"/><path d="M206.063,1897.21l3.818,-6.63l-7.659,0l3.841,6.63Z" style="fill:#b4b4b4;fill-rule:nonzero;"/><path d="M206.063,1889.64l3.818,-6.631l-7.659,0l3.841,6.631Z" style="fill:#b4b4b4;fill-rule:nonzero;"/><path d="M206.063,1882.08l3.818,-6.647l-7.659,0l3.841,6.647Z" style="fill:#b4b4b4;fill-rule:nonzero;"/><path d="M206.063,1874.51l3.818,-6.631l-7.659,0l3.841,6.631Z" style="fill:#b4b4b4;fill-rule:nonzero;"/><path d="M206.063,1866.96l3.818,-6.647l-7.659,-0l3.841,6.647Z" style="fill:#b4b4b4;fill-rule:nonzero;"/><path d="M206.063,1859.39l3.818,-6.63l-7.659,0l3.841,6.63Z" style="fill:#b4b4b4;fill-rule:nonzero;"/><path d="M206.063,1851.82l3.818,-6.631l-7.659,0l3.841,6.631Z" style="fill:#b4b4b4;fill-rule:nonzero;"/><path d="M206.063,1913.26l3.818,6.647l-7.659,-0l3.841,-6.647Z" style="fill:#a091b7;fill-rule:nonzero;"/><path d="M206.063,2018.25l3.818,-6.63l-7.659,-0l3.841,6.63Z" style="fill:#a091b7;fill-rule:nonzero;"/><path d="M206.063,2010.69l3.818,-6.647l-7.659,-0l3.841,6.647Z" style="fill:#a091b7;fill-rule:nonzero;"/><path d="M206.063,2003.12l3.818,-6.63l-7.659,-0l3.841,6.63Z" style="fill:#a091b7;fill-rule:nonzero;"/><path d="M206.063,1995.57l3.818,-6.647l-7.659,0l3.841,6.647Z" style="fill:#a091b7;fill-rule:nonzero;"/><path d="M206.063,1988l3.818,-6.63l-7.659,-0l3.841,6.63Z" style="fill:#a091b7;fill-rule:nonzero;"/><path d="M206.063,1980.42l3.818,-6.63l-7.659,-0l3.841,6.63Z" style="fill:#a091b7;fill-rule:nonzero;"/><path d="M206.063,2040.94l3.818,-6.647l-7.659,0l3.841,6.647Z" style="fill:#a091b7;fill-rule:nonzero;"/><path d="M206.063,2033.37l3.818,-6.63l-7.659,-0l3.841,6.63Z" style="fill:#a091b7;fill-rule:nonzero;"/><path d="M206.063,2025.8l3.818,-6.63l-7.659,-0l3.841,6.63Z" style="fill:#a091b7;fill-rule:nonzero;"/><path d="M206.063,2041.87l3.818,6.647l-7.659,0l3.841,-6.647Z" style="fill:#edd58a;fill-rule:nonzero;"/><path d="M206.063,1503.81l3.818,-6.63l-7.659,-0l3.841,6.63Z" style="fill:#97bf8a;fill-rule:nonzero;"/><path d="M206.063,1496.26l3.818,-6.647l-7.659,-0l3.841,6.647Z" style="fill:#97bf8a;fill-rule:nonzero;"/><path d="M206.063,1488.69l3.818,-6.63l-7.659,-0l3.841,6.63Z" style="fill:#97bf8a;fill-rule:nonzero;"/><path d="M206.063,1481.12l3.818,-6.631l-7.659,0l3.841,6.631Z" style="fill:#97bf8a;fill-rule:nonzero;"/><path d="M206.063,1473.56l3.818,-6.647l-7.659,-0l3.841,6.647Z" style="fill:#97bf8a;fill-rule:nonzero;"/><path d="M206.063,1465.99l3.818,-6.63l-7.659,-0l3.841,6.63Z" style="fill:#97bf8a;fill-rule:nonzero;"/><path d="M206.063,1504.75l3.818,6.631l-7.659,-0l3.841,-6.631Z" style="fill:#86c0d1;fill-rule:nonzero;"/><path d="M206.063,1512.31l3.818,6.647l-7.659,-0l3.841,-6.647Z" style="fill:#86c0d1;fill-rule:nonzero;"/><path d="M206.063,1519.88l3.818,6.63l-7.659,-0l3.841,-6.63Z" style="fill:#86c0d1;fill-rule:nonzero;"/><path d="M206.063,1527.45l3.818,6.63l-7.659,0l3.841,-6.63Z" style="fill:#86c0d1;fill-rule:nonzero;"/><path d="M206.063,1624.87l3.818,-6.63l-7.659,-0l3.841,6.63Z" style="fill:#86c0d1;fill-rule:nonzero;"/><path d="M206.063,1617.31l3.818,-6.647l-7.659,0l3.841,6.647Z" style="fill:#86c0d1;fill-rule:nonzero;"/><path d="M206.063,1609.74l3.818,-6.63l-7.659,-0l3.841,6.63Z" style="fill:#86c0d1;fill-rule:nonzero;"/><path d="M206.063,1602.17l3.818,-6.631l-7.659,0l3.841,6.631Z" style="fill:#86c0d1;fill-rule:nonzero;"/><path d="M206.063,1594.62l3.818,-6.647l-7.659,-0l3.841,6.647Z" style="fill:#86c0d1;fill-rule:nonzero;"/><path d="M206.063,1625.79l3.818,6.63l-7.659,0l3.841,-6.63Z" style="fill:#7a9ace;fill-rule:nonzero;"/><path d="M206.063,1633.36l3.818,6.63l-7.659,0l3.841,-6.63Z" style="fill:#7a9ace;fill-rule:nonzero;"/><path d="M206.063,1640.92l3.818,6.647l-7.659,0l3.841,-6.647Z" style="fill:#7a9ace;fill-rule:nonzero;"/><path d="M206.063,1648.49l3.818,6.63l-7.659,0l3.841,-6.63Z" style="fill:#7a9ace;fill-rule:nonzero;"/><path d="M206.063,1656.06l3.818,6.631l-7.659,-0l3.841,-6.631Z" style="fill:#7a9ace;fill-rule:nonzero;"/><path d="M206.063,1776.17l3.818,-6.63l-7.659,-0l3.841,6.63Z" style="fill:#7a9ace;fill-rule:nonzero;"/><path d="M206.063,1768.62l3.818,-6.647l-7.659,-0l3.841,6.647Z" style="fill:#7a9ace;fill-rule:nonzero;"/><path d="M206.063,1761.05l3.818,-6.63l-7.659,-0l3.841,6.63Z" style="fill:#7a9ace;fill-rule:nonzero;"/><path d="M206.063,1753.48l3.818,-6.63l-7.659,0l3.841,6.63Z" style="fill:#7a9ace;fill-rule:nonzero;"/><path d="M206.063,1745.92l3.818,-6.647l-7.659,-0l3.841,6.647Z" style="fill:#7a9ace;fill-rule:nonzero;"/><path d="M206.063,1738.35l3.818,-6.631l-7.659,0l3.841,6.631Z" style="fill:#7a9ace;fill-rule:nonzero;"/><path d="M206.063,1730.78l3.818,-6.631l-7.659,0l3.841,6.631Z" style="fill:#7a9ace;fill-rule:nonzero;"/><path d="M206.063,1723.23l3.818,-6.647l-7.659,0l3.841,6.647Z" style="fill:#7a9ace;fill-rule:nonzero;"/><path d="M206.063,1777.1l3.818,6.631l-7.659,-0l3.841,-6.631Z" style="fill:#b4b4b4;fill-rule:nonzero;"/><path d="M206.063,1784.65l3.818,6.647l-7.659,-0l3.841,-6.647Z" style="fill:#b4b4b4;fill-rule:nonzero;"/><path d="M206.063,1912.33l3.818,-6.63l-7.659,-0l3.841,6.63Z" style="fill:#b4b4b4;fill-rule:nonzero;"/><path d="M206.063,1904.78l3.818,-6.647l-7.659,-0l3.841,6.647Z" style="fill:#b4b4b4;fill-rule:nonzero;"/><path d="M206.063,1897.21l3.818,-6.63l-7.659,0l3.841,6.63Z" style="fill:#b4b4b4;fill-rule:nonzero;"/><path d="M206.063,1889.64l3.818,-6.631l-7.659,0l3.841,6.631Z" style="fill:#b4b4b4;fill-rule:nonzero;"/><path d="M206.063,1882.08l3.818,-6.647l-7.659,0l3.841,6.647Z" style="fill:#b4b4b4;fill-rule:nonzero;"/><path d="M206.063,1874.51l3.818,-6.631l-7.659,0l3.841,6.631Z" style="fill:#b4b4b4;fill-rule:nonzero;"/><path d="M206.063,1866.96l3.818,-6.647l-7.659,-0l3.841,6.647Z" style="fill:#b4b4b4;fill-rule:nonzero;"/><path d="M206.063,1859.39l3.818,-6.63l-7.659,0l3.841,6.63Z" style="fill:#b4b4b4;fill-rule:nonzero;"/><path d="M206.063,1851.82l3.818,-6.631l-7.659,0l3.841,6.631Z" style="fill:#b4b4b4;fill-rule:nonzero;"/><path d="M206.063,1913.26l3.818,6.647l-7.659,-0l3.841,-6.647Z" style="fill:#a091b7;fill-rule:nonzero;"/><path d="M206.063,2018.25l3.818,-6.63l-7.659,-0l3.841,6.63Z" style="fill:#a091b7;fill-rule:nonzero;"/><path d="M206.063,2010.69l3.818,-6.647l-7.659,-0l3.841,6.647Z" style="fill:#a091b7;fill-rule:nonzero;"/><path d="M206.063,2003.12l3.818,-6.63l-7.659,-0l3.841,6.63Z" style="fill:#a091b7;fill-rule:nonzero;"/><path d="M206.063,1995.57l3.818,-6.647l-7.659,0l3.841,6.647Z" style="fill:#a091b7;fill-rule:nonzero;"/><path d="M206.063,1988l3.818,-6.63l-7.659,-0l3.841,6.63Z" style="fill:#a091b7;fill-rule:nonzero;"/><path d="M206.063,1980.42l3.818,-6.63l-7.659,-0l3.841,6.63Z" style="fill:#a091b7;fill-rule:nonzero;"/><path d="M206.063,2040.94l3.818,-6.647l-7.659,0l3.841,6.647Z" style="fill:#a091b7;fill-rule:nonzero;"/><path d="M206.063,2033.37l3.818,-6.63l-7.659,-0l3.841,6.63Z" style="fill:#a091b7;fill-rule:nonzero;"/><path d="M206.063,2025.8l3.818,-6.63l-7.659,-0l3.841,6.63Z" style="fill:#a091b7;fill-rule:nonzero;"/><path d="M206.063,2041.87l3.818,6.647l-7.659,0l3.841,-6.647Z" style="fill:#edd58a;fill-rule:nonzero;"/><path d="M382.446,1503.81l3.819,-6.63l-7.66,-0l3.841,6.63Z" style="fill:#86c0d1;fill-rule:nonzero;"/><path d="M382.446,1496.26l3.819,-6.647l-7.66,-0l3.841,6.647Z" style="fill:#86c0d1;fill-rule:nonzero;"/><path d="M382.446,1488.69l3.819,-6.63l-7.66,-0l3.841,6.63Z" style="fill:#86c0d1;fill-rule:nonzero;"/><path d="M382.446,1481.12l3.819,-6.631l-7.66,0l3.841,6.631Z" style="fill:#86c0d1;fill-rule:nonzero;"/><path d="M382.446,1473.56l3.819,-6.647l-7.66,-0l3.841,6.647Z" style="fill:#86c0d1;fill-rule:nonzero;"/><path d="M382.446,1465.99l3.819,-6.63l-7.66,-0l3.841,6.63Z" style="fill:#86c0d1;fill-rule:nonzero;"/><path d="M382.446,1504.75l3.819,6.631l-7.66,-0l3.841,-6.631Z" style="fill:#7a9ace;fill-rule:nonzero;"/><path d="M382.446,1512.31l3.819,6.647l-7.66,-0l3.841,-6.647Z" style="fill:#7a9ace;fill-rule:nonzero;"/><path d="M382.446,1519.88l3.819,6.63l-7.66,-0l3.841,-6.63Z" style="fill:#7a9ace;fill-rule:nonzero;"/><path d="M382.446,1527.45l3.819,6.63l-7.66,0l3.841,-6.63Z" style="fill:#7a9ace;fill-rule:nonzero;"/><path d="M382.446,1639.99l3.819,-6.63l-7.66,-0l3.841,6.63Z" style="fill:#7a9ace;fill-rule:nonzero;"/><path d="M382.446,1632.44l3.819,-6.647l-7.66,-0l3.841,6.647Z" style="fill:#7a9ace;fill-rule:nonzero;"/><path d="M382.446,1624.87l3.819,-6.631l-7.66,0l3.841,6.631Z" style="fill:#7a9ace;fill-rule:nonzero;"/><path d="M382.446,1617.3l3.819,-6.63l-7.66,0l3.841,6.63Z" style="fill:#7a9ace;fill-rule:nonzero;"/><path d="M382.446,1609.74l3.819,-6.647l-7.66,-0l3.841,6.647Z" style="fill:#7a9ace;fill-rule:nonzero;"/><path d="M382.446,1602.17l3.819,-6.631l-7.66,0l3.841,6.631Z" style="fill:#7a9ace;fill-rule:nonzero;"/><path d="M382.446,1594.6l3.819,-6.631l-7.66,0l3.841,6.631Z" style="fill:#7a9ace;fill-rule:nonzero;"/><path d="M382.446,1640.92l3.819,6.647l-7.66,0l3.841,-6.647Z" style="fill:#97bf8a;fill-rule:nonzero;"/><path d="M382.446,1648.49l3.819,6.63l-7.66,0l3.841,-6.63Z" style="fill:#97bf8a;fill-rule:nonzero;"/><path d="M382.446,1656.06l3.819,6.631l-7.66,-0l3.841,-6.631Z" style="fill:#97bf8a;fill-rule:nonzero;"/><path d="M382.446,1761.03l3.819,-6.63l-7.66,-0l3.841,6.63Z" style="fill:#97bf8a;fill-rule:nonzero;"/><path d="M382.446,1753.48l3.819,-6.647l-7.66,0l3.841,6.647Z" style="fill:#97bf8a;fill-rule:nonzero;"/><path d="M382.446,1745.9l3.819,-6.63l-7.66,-0l3.841,6.63Z" style="fill:#97bf8a;fill-rule:nonzero;"/><path d="M382.446,1738.33l3.819,-6.63l-7.66,-0l3.841,6.63Z" style="fill:#97bf8a;fill-rule:nonzero;"/><path d="M382.446,1730.78l3.819,-6.647l-7.66,-0l3.841,6.647Z" style="fill:#97bf8a;fill-rule:nonzero;"/><path d="M382.446,1723.21l3.819,-6.63l-7.66,0l3.841,6.63Z" style="fill:#97bf8a;fill-rule:nonzero;"/><path d="M382.446,1761.97l3.819,6.63l-7.66,0l3.841,-6.63Z" style="fill:#b4b4b4;fill-rule:nonzero;"/><path d="M382.446,1769.53l3.819,6.647l-7.66,0l3.841,-6.647Z" style="fill:#b4b4b4;fill-rule:nonzero;"/><path d="M382.446,1777.1l3.819,6.631l-7.66,-0l3.841,-6.631Z" style="fill:#b4b4b4;fill-rule:nonzero;"/><path d="M382.446,1784.65l3.819,6.647l-7.66,-0l3.841,-6.647Z" style="fill:#b4b4b4;fill-rule:nonzero;"/><path d="M382.446,1912.33l3.819,-6.63l-7.66,-0l3.841,6.63Z" style="fill:#b4b4b4;fill-rule:nonzero;"/><path d="M382.446,1904.78l3.819,-6.647l-7.66,-0l3.841,6.647Z" style="fill:#b4b4b4;fill-rule:nonzero;"/><path d="M382.446,1897.21l3.819,-6.63l-7.66,0l3.841,6.63Z" style="fill:#b4b4b4;fill-rule:nonzero;"/><path d="M382.446,1889.64l3.819,-6.631l-7.66,0l3.841,6.631Z" style="fill:#b4b4b4;fill-rule:nonzero;"/><path d="M382.446,1882.08l3.819,-6.647l-7.66,0l3.841,6.647Z" style="fill:#b4b4b4;fill-rule:nonzero;"/><path d="M382.446,1874.51l3.819,-6.631l-7.66,0l3.841,6.631Z" style="fill:#b4b4b4;fill-rule:nonzero;"/><path d="M382.446,1866.96l3.819,-6.647l-7.66,-0l3.841,6.647Z" style="fill:#b4b4b4;fill-rule:nonzero;"/><path d="M382.446,1859.39l3.819,-6.63l-7.66,0l3.841,6.63Z" style="fill:#b4b4b4;fill-rule:nonzero;"/><path d="M382.446,1851.82l3.819,-6.631l-7.66,0l3.841,6.631Z" style="fill:#b4b4b4;fill-rule:nonzero;"/><path d="M382.446,1913.26l3.819,6.647l-7.66,-0l3.841,-6.647Z" style="fill:#a091b7;fill-rule:nonzero;"/><path d="M382.446,2018.25l3.819,-6.63l-7.66,-0l3.841,6.63Z" style="fill:#a091b7;fill-rule:nonzero;"/><path d="M382.446,2010.69l3.819,-6.647l-7.66,-0l3.841,6.647Z" style="fill:#a091b7;fill-rule:nonzero;"/><path d="M382.446,2003.12l3.819,-6.63l-7.66,-0l3.841,6.63Z" style="fill:#a091b7;fill-rule:nonzero;"/><path d="M382.446,1995.57l3.819,-6.647l-7.66,0l3.841,6.647Z" style="fill:#a091b7;fill-rule:nonzero;"/><path d="M382.446,1988l3.819,-6.63l-7.66,-0l3.841,6.63Z" style="fill:#a091b7;fill-rule:nonzero;"/><path d="M382.446,1980.42l3.819,-6.63l-7.66,-0l3.841,6.63Z" style="fill:#a091b7;fill-rule:nonzero;"/><path d="M382.446,2025.82l3.819,-6.647l-7.66,-0l3.841,6.647Z" style="fill:#a091b7;fill-rule:nonzero;"/><path d="M382.446,2026.74l3.819,6.63l-7.66,0l3.841,-6.63Z" style="fill:#edd58a;fill-rule:nonzero;"/><path d="M382.446,2034.31l3.819,6.631l-7.66,-0l3.841,-6.631Z" style="fill:#edd58a;fill-rule:nonzero;"/><path d="M382.446,2041.87l3.819,6.647l-7.66,0l3.841,-6.647Z" style="fill:#edd58a;fill-rule:nonzero;"/><path d="M558.83,1511.38l3.818,-6.63l-7.659,0l3.841,6.63Z" style="fill:#86c0d1;fill-rule:nonzero;"/><path d="M558.83,1503.83l3.818,-6.647l-7.659,-0l3.841,6.647Z" style="fill:#86c0d1;fill-rule:nonzero;"/><path d="M558.83,1496.26l3.818,-6.631l-7.659,0l3.841,6.631Z" style="fill:#86c0d1;fill-rule:nonzero;"/><path d="M558.83,1488.69l3.818,-6.63l-7.659,-0l3.841,6.63Z" style="fill:#86c0d1;fill-rule:nonzero;"/><path d="M558.83,1481.13l3.818,-6.647l-7.659,0l3.841,6.647Z" style="fill:#86c0d1;fill-rule:nonzero;"/><path d="M558.83,1473.56l3.818,-6.63l-7.659,-0l3.841,6.63Z" style="fill:#86c0d1;fill-rule:nonzero;"/><path d="M558.83,1465.99l3.818,-6.631l-7.659,0l3.841,6.631Z" style="fill:#86c0d1;fill-rule:nonzero;"/><path d="M558.83,1512.31l3.818,6.647l-7.659,-0l3.841,-6.647Z" style="fill:#7a9ace;fill-rule:nonzero;"/><path d="M558.83,1519.88l3.818,6.63l-7.659,-0l3.841,-6.63Z" style="fill:#7a9ace;fill-rule:nonzero;"/><path d="M558.83,1527.45l3.818,6.63l-7.659,0l3.841,-6.63Z" style="fill:#7a9ace;fill-rule:nonzero;"/><path d="M558.83,1632.42l3.818,-6.631l-7.659,0l3.841,6.631Z" style="fill:#7a9ace;fill-rule:nonzero;"/><path d="M558.83,1624.87l3.818,-6.647l-7.659,0l3.841,6.647Z" style="fill:#7a9ace;fill-rule:nonzero;"/><path d="M558.83,1617.3l3.818,-6.63l-7.659,0l3.841,6.63Z" style="fill:#7a9ace;fill-rule:nonzero;"/><path d="M558.83,1609.72l3.818,-6.63l-7.659,-0l3.841,6.63Z" style="fill:#7a9ace;fill-rule:nonzero;"/><path d="M558.83,1602.17l3.818,-6.647l-7.659,-0l3.841,6.647Z" style="fill:#7a9ace;fill-rule:nonzero;"/><path d="M558.83,1594.6l3.818,-6.631l-7.659,0l3.841,6.631Z" style="fill:#7a9ace;fill-rule:nonzero;"/><path d="M558.83,1633.36l3.818,6.63l-7.659,0l3.841,-6.63Z" style="fill:#b4b4b4;fill-rule:nonzero;"/><path d="M558.83,1640.92l3.818,6.647l-7.659,0l3.841,-6.647Z" style="fill:#b4b4b4;fill-rule:nonzero;"/><path d="M558.83,1648.49l3.818,6.63l-7.659,0l3.841,-6.63Z" style="fill:#b4b4b4;fill-rule:nonzero;"/><path d="M558.83,1656.06l3.818,6.631l-7.659,-0l3.841,-6.631Z" style="fill:#b4b4b4;fill-rule:nonzero;"/><path d="M558.83,1776.17l3.818,-6.63l-7.659,-0l3.841,6.63Z" style="fill:#b4b4b4;fill-rule:nonzero;"/><path d="M558.83,1768.62l3.818,-6.647l-7.659,-0l3.841,6.647Z" style="fill:#b4b4b4;fill-rule:nonzero;"/><path d="M558.83,1761.05l3.818,-6.63l-7.659,-0l3.841,6.63Z" style="fill:#b4b4b4;fill-rule:nonzero;"/><path d="M558.83,1753.48l3.818,-6.63l-7.659,0l3.841,6.63Z" style="fill:#b4b4b4;fill-rule:nonzero;"/><path d="M558.83,1745.92l3.818,-6.647l-7.659,-0l3.841,6.647Z" style="fill:#b4b4b4;fill-rule:nonzero;"/><path d="M558.83,1738.35l3.818,-6.631l-7.659,0l3.841,6.631Z" style="fill:#b4b4b4;fill-rule:nonzero;"/><path d="M558.83,1730.78l3.818,-6.631l-7.659,0l3.841,6.631Z" style="fill:#b4b4b4;fill-rule:nonzero;"/><path d="M558.83,1723.23l3.818,-6.647l-7.659,0l3.841,6.647Z" style="fill:#b4b4b4;fill-rule:nonzero;"/><path d="M558.83,1777.1l3.818,6.631l-7.659,-0l3.841,-6.631Z" style="fill:#97bf8a;fill-rule:nonzero;"/><path d="M558.83,1784.65l3.818,6.647l-7.659,-0l3.841,-6.647Z" style="fill:#97bf8a;fill-rule:nonzero;"/><path d="M558.83,1889.64l3.818,-6.631l-7.659,0l3.841,6.631Z" style="fill:#97bf8a;fill-rule:nonzero;"/><path d="M558.83,1882.08l3.818,-6.647l-7.659,0l3.841,6.647Z" style="fill:#97bf8a;fill-rule:nonzero;"/><path d="M558.83,1874.51l3.818,-6.631l-7.659,0l3.841,6.631Z" style="fill:#97bf8a;fill-rule:nonzero;"/><path d="M558.83,1866.94l3.818,-6.63l-7.659,-0l3.841,6.63Z" style="fill:#97bf8a;fill-rule:nonzero;"/><path d="M558.83,1859.39l3.818,-6.647l-7.659,0l3.841,6.647Z" style="fill:#97bf8a;fill-rule:nonzero;"/><path d="M558.83,1851.82l3.818,-6.631l-7.659,0l3.841,6.631Z" style="fill:#97bf8a;fill-rule:nonzero;"/><path d="M558.83,1890.56l3.818,6.647l-7.659,-0l3.841,-6.647Z" style="fill:#edd58a;fill-rule:nonzero;"/><path d="M558.83,1898.13l3.818,6.631l-7.659,-0l3.841,-6.631Z" style="fill:#edd58a;fill-rule:nonzero;"/><path d="M558.83,1905.7l3.818,6.63l-7.659,0l3.841,-6.63Z" style="fill:#edd58a;fill-rule:nonzero;"/><path d="M558.83,1913.26l3.818,6.647l-7.659,-0l3.841,-6.647Z" style="fill:#edd58a;fill-rule:nonzero;"/><path d="M558.83,2018.25l3.818,-6.63l-7.659,-0l3.841,6.63Z" style="fill:#edd58a;fill-rule:nonzero;"/><path d="M558.83,2010.69l3.818,-6.647l-7.659,-0l3.841,6.647Z" style="fill:#edd58a;fill-rule:nonzero;"/><path d="M558.83,2003.12l3.818,-6.63l-7.659,-0l3.841,6.63Z" style="fill:#edd58a;fill-rule:nonzero;"/><path d="M558.83,1995.57l3.818,-6.647l-7.659,0l3.841,6.647Z" style="fill:#edd58a;fill-rule:nonzero;"/><path d="M558.83,1988l3.818,-6.63l-7.659,-0l3.841,6.63Z" style="fill:#edd58a;fill-rule:nonzero;"/><path d="M558.83,1980.42l3.818,-6.63l-7.659,-0l3.841,6.63Z" style="fill:#edd58a;fill-rule:nonzero;"/><path d="M558.83,2019.17l3.818,6.647l-7.659,-0l3.841,-6.647Z" style="fill:#a091b7;fill-rule:nonzero;"/><path d="M558.83,2026.74l3.818,6.63l-7.659,0l3.841,-6.63Z" style="fill:#a091b7;fill-rule:nonzero;"/><path d="M558.83,2034.31l3.818,6.631l-7.659,-0l3.841,-6.631Z" style="fill:#a091b7;fill-rule:nonzero;"/><path d="M558.83,2041.87l3.818,6.647l-7.659,0l3.841,-6.647Z" style="fill:#a091b7;fill-rule:nonzero;"/><path d="M735.213,1503.81l3.841,-6.63l-7.682,-0l3.841,6.63Z" style="fill:#86c0d1;fill-rule:nonzero;"/><path d="M735.213,1496.26l3.841,-6.647l-7.682,-0l3.841,6.647Z" style="fill:#86c0d1;fill-rule:nonzero;"/><path d="M735.213,1488.69l3.841,-6.63l-7.682,-0l3.841,6.63Z" style="fill:#86c0d1;fill-rule:nonzero;"/><path d="M735.213,1481.12l3.841,-6.631l-7.682,0l3.841,6.631Z" style="fill:#86c0d1;fill-rule:nonzero;"/><path d="M735.213,1473.56l3.841,-6.647l-7.682,-0l3.841,6.647Z" style="fill:#86c0d1;fill-rule:nonzero;"/><path d="M735.213,1465.99l3.841,-6.63l-7.682,-0l3.841,6.63Z" style="fill:#86c0d1;fill-rule:nonzero;"/><path d="M735.213,1504.75l3.841,6.631l-7.682,-0l3.841,-6.631Z" style="fill:#7a9ace;fill-rule:nonzero;"/><path d="M735.213,1512.31l3.841,6.647l-7.682,-0l3.841,-6.647Z" style="fill:#7a9ace;fill-rule:nonzero;"/><path d="M735.213,1519.88l3.841,6.63l-7.682,-0l3.841,-6.63Z" style="fill:#7a9ace;fill-rule:nonzero;"/><path d="M735.213,1527.45l3.841,6.63l-7.682,0l3.841,-6.63Z" style="fill:#7a9ace;fill-rule:nonzero;"/><path d="M735.213,1632.42l3.841,-6.631l-7.682,0l3.841,6.631Z" style="fill:#7a9ace;fill-rule:nonzero;"/><path d="M735.213,1624.87l3.841,-6.647l-7.682,0l3.841,6.647Z" style="fill:#7a9ace;fill-rule:nonzero;"/><path d="M735.213,1617.3l3.841,-6.63l-7.682,0l3.841,6.63Z" style="fill:#7a9ace;fill-rule:nonzero;"/><path d="M735.213,1609.72l3.841,-6.63l-7.682,-0l3.841,6.63Z" style="fill:#7a9ace;fill-rule:nonzero;"/><path d="M735.213,1602.17l3.841,-6.647l-7.682,-0l3.841,6.647Z" style="fill:#7a9ace;fill-rule:nonzero;"/><path d="M735.213,1594.6l3.841,-6.631l-7.682,0l3.841,6.631Z" style="fill:#7a9ace;fill-rule:nonzero;"/><path d="M735.213,1633.36l3.841,6.63l-7.682,0l3.841,-6.63Z" style="fill:#b4b4b4;fill-rule:nonzero;"/><path d="M735.213,1640.92l3.841,6.647l-7.682,0l3.841,-6.647Z" style="fill:#b4b4b4;fill-rule:nonzero;"/><path d="M735.213,1648.49l3.841,6.63l-7.682,0l3.841,-6.63Z" style="fill:#b4b4b4;fill-rule:nonzero;"/><path d="M735.213,1656.06l3.841,6.631l-7.682,-0l3.841,-6.631Z" style="fill:#b4b4b4;fill-rule:nonzero;"/><path d="M735.213,1768.6l3.841,-6.631l-7.682,0l3.841,6.631Z" style="fill:#b4b4b4;fill-rule:nonzero;"/><path d="M735.213,1761.05l3.841,-6.647l-7.682,0l3.841,6.647Z" style="fill:#b4b4b4;fill-rule:nonzero;"/><path d="M735.213,1753.48l3.841,-6.63l-7.682,0l3.841,6.63Z" style="fill:#b4b4b4;fill-rule:nonzero;"/><path d="M735.213,1745.9l3.841,-6.63l-7.682,-0l3.841,6.63Z" style="fill:#b4b4b4;fill-rule:nonzero;"/><path d="M735.213,1738.35l3.841,-6.647l-7.682,-0l3.841,6.647Z" style="fill:#b4b4b4;fill-rule:nonzero;"/><path d="M735.213,1730.78l3.841,-6.631l-7.682,0l3.841,6.631Z" style="fill:#b4b4b4;fill-rule:nonzero;"/><path d="M735.213,1723.21l3.841,-6.63l-7.682,0l3.841,6.63Z" style="fill:#b4b4b4;fill-rule:nonzero;"/><path d="M735.213,1769.53l3.841,6.647l-7.682,0l3.841,-6.647Z" style="fill:#edd58a;fill-rule:nonzero;"/><path d="M735.213,1777.1l3.841,6.631l-7.682,-0l3.841,-6.631Z" style="fill:#edd58a;fill-rule:nonzero;"/><path d="M735.213,1784.65l3.841,6.647l-7.682,-0l3.841,-6.647Z" style="fill:#edd58a;fill-rule:nonzero;"/><path d="M735.213,1889.64l3.841,-6.631l-7.682,0l3.841,6.631Z" style="fill:#edd58a;fill-rule:nonzero;"/><path d="M735.213,1882.08l3.841,-6.647l-7.682,0l3.841,6.647Z" style="fill:#edd58a;fill-rule:nonzero;"/><path d="M735.213,1874.51l3.841,-6.631l-7.682,0l3.841,6.631Z" style="fill:#edd58a;fill-rule:nonzero;"/><path d="M735.213,1866.94l3.841,-6.63l-7.682,-0l3.841,6.63Z" style="fill:#edd58a;fill-rule:nonzero;"/><path d="M735.213,1859.39l3.841,-6.647l-7.682,0l3.841,6.647Z" style="fill:#edd58a;fill-rule:nonzero;"/><path d="M735.213,1851.82l3.841,-6.631l-7.682,0l3.841,6.631Z" style="fill:#edd58a;fill-rule:nonzero;"/><path d="M735.213,1890.56l3.841,6.647l-7.682,-0l3.841,-6.647Z" style="fill:#a091b7;fill-rule:nonzero;"/><path d="M735.213,1898.13l3.841,6.631l-7.682,-0l3.841,-6.631Z" style="fill:#a091b7;fill-rule:nonzero;"/><path d="M735.213,1905.7l3.841,6.63l-7.682,0l3.841,-6.63Z" style="fill:#a091b7;fill-rule:nonzero;"/><path d="M735.213,1913.26l3.841,6.647l-7.682,-0l3.841,-6.647Z" style="fill:#a091b7;fill-rule:nonzero;"/><path d="M735.213,2018.25l3.841,-6.63l-7.682,-0l3.841,6.63Z" style="fill:#a091b7;fill-rule:nonzero;"/><path d="M735.213,2010.69l3.841,-6.647l-7.682,-0l3.841,6.647Z" style="fill:#a091b7;fill-rule:nonzero;"/><path d="M735.213,2003.12l3.841,-6.63l-7.682,-0l3.841,6.63Z" style="fill:#a091b7;fill-rule:nonzero;"/><path d="M735.213,1995.57l3.841,-6.647l-7.682,0l3.841,6.647Z" style="fill:#a091b7;fill-rule:nonzero;"/><path d="M735.213,1988l3.841,-6.63l-7.682,-0l3.841,6.63Z" style="fill:#a091b7;fill-rule:nonzero;"/><path d="M735.213,1980.42l3.841,-6.63l-7.682,-0l3.841,6.63Z" style="fill:#a091b7;fill-rule:nonzero;"/><path d="M735.213,2025.82l3.841,-6.647l-7.682,-0l3.841,6.647Z" style="fill:#a091b7;fill-rule:nonzero;"/><path d="M735.213,2026.74l3.841,6.63l-7.682,0l3.841,-6.63Z" style="fill:#97bf8a;fill-rule:nonzero;"/><path d="M735.213,2034.31l3.841,6.631l-7.682,-0l3.841,-6.631Z" style="fill:#97bf8a;fill-rule:nonzero;"/><path d="M735.213,2041.87l3.841,6.647l-7.682,0l3.841,-6.647Z" style="fill:#97bf8a;fill-rule:nonzero;"/><path d="M975.616,1496.31l3.819,-6.63l-7.66,-0l3.841,6.63Z" style="fill:#97bf8a;fill-rule:nonzero;"/><path d="M975.616,1488.75l3.819,-6.647l-7.66,0l3.841,6.647Z" style="fill:#97bf8a;fill-rule:nonzero;"/><path d="M975.616,1481.18l3.819,-6.631l-7.66,0l3.841,6.631Z" style="fill:#97bf8a;fill-rule:nonzero;"/><path d="M975.616,1473.61l3.819,-6.631l-7.66,0l3.841,6.631Z" style="fill:#97bf8a;fill-rule:nonzero;"/><path d="M975.616,1466.06l3.819,-6.647l-7.66,0l3.841,6.647Z" style="fill:#97bf8a;fill-rule:nonzero;"/><path d="M975.584,1497.18l3.819,6.63l-7.66,0l3.841,-6.63Z" style="fill:#a091b7;fill-rule:nonzero;"/><path d="M975.584,1504.75l3.819,6.631l-7.66,-0l3.841,-6.631Z" style="fill:#a091b7;fill-rule:nonzero;"/><path d="M975.584,1512.31l3.819,6.647l-7.66,-0l3.841,-6.647Z" style="fill:#a091b7;fill-rule:nonzero;"/><path d="M975.584,1519.88l3.819,6.63l-7.66,-0l3.841,-6.63Z" style="fill:#a091b7;fill-rule:nonzero;"/><path d="M975.584,1527.45l3.819,6.63l-7.66,0l3.841,-6.63Z" style="fill:#a091b7;fill-rule:nonzero;"/><path d="M975.584,1624.87l3.819,-6.63l-7.66,-0l3.841,6.63Z" style="fill:#a091b7;fill-rule:nonzero;"/><path d="M975.584,1617.31l3.819,-6.647l-7.66,0l3.841,6.647Z" style="fill:#a091b7;fill-rule:nonzero;"/><path d="M975.584,1609.74l3.819,-6.63l-7.66,-0l3.841,6.63Z" style="fill:#a091b7;fill-rule:nonzero;"/><path d="M975.584,1602.17l3.819,-6.631l-7.66,0l3.841,6.631Z" style="fill:#a091b7;fill-rule:nonzero;"/><path d="M975.584,1594.62l3.819,-6.647l-7.66,-0l3.841,6.647Z" style="fill:#a091b7;fill-rule:nonzero;"/><path d="M975.584,1625.79l3.819,6.63l-7.66,0l3.841,-6.63Z" style="fill:#b4b4b4;fill-rule:nonzero;"/><path d="M975.584,1633.36l3.819,6.63l-7.66,0l3.841,-6.63Z" style="fill:#b4b4b4;fill-rule:nonzero;"/><path d="M975.584,1640.92l3.819,6.647l-7.66,0l3.841,-6.647Z" style="fill:#b4b4b4;fill-rule:nonzero;"/><path d="M975.584,1648.49l3.819,6.63l-7.66,0l3.841,-6.63Z" style="fill:#b4b4b4;fill-rule:nonzero;"/><path d="M975.584,1656.06l3.819,6.631l-7.66,-0l3.841,-6.631Z" style="fill:#b4b4b4;fill-rule:nonzero;"/><path d="M975.584,1753.48l3.819,-6.63l-7.66,0l3.841,6.63Z" style="fill:#b4b4b4;fill-rule:nonzero;"/><path d="M975.584,1745.92l3.819,-6.647l-7.66,-0l3.841,6.647Z" style="fill:#b4b4b4;fill-rule:nonzero;"/><path d="M975.584,1738.35l3.819,-6.631l-7.66,0l3.841,6.631Z" style="fill:#b4b4b4;fill-rule:nonzero;"/><path d="M975.584,1730.78l3.819,-6.631l-7.66,0l3.841,6.631Z" style="fill:#b4b4b4;fill-rule:nonzero;"/><path d="M975.584,1723.23l3.819,-6.647l-7.66,0l3.841,6.647Z" style="fill:#b4b4b4;fill-rule:nonzero;"/><path d="M975.584,1761.03l3.819,-6.63l-7.66,-0l3.841,6.63Z" style="fill:#b4b4b4;fill-rule:nonzero;"/><path d="M975.584,1761.97l3.819,6.63l-7.66,0l3.841,-6.63Z" style="fill:#86c0d1;fill-rule:nonzero;"/><path d="M975.584,1769.53l3.819,6.647l-7.66,0l3.841,-6.647Z" style="fill:#86c0d1;fill-rule:nonzero;"/><path d="M975.584,1777.1l3.819,6.631l-7.66,-0l3.841,-6.631Z" style="fill:#86c0d1;fill-rule:nonzero;"/><path d="M975.584,1784.65l3.819,6.647l-7.66,-0l3.841,-6.647Z" style="fill:#86c0d1;fill-rule:nonzero;"/><path d="M975.584,1882.08l3.819,-6.63l-7.66,-0l3.841,6.63Z" style="fill:#86c0d1;fill-rule:nonzero;"/><path d="M975.584,1874.53l3.819,-6.647l-7.66,-0l3.841,6.647Z" style="fill:#86c0d1;fill-rule:nonzero;"/><path d="M975.584,1866.96l3.819,-6.631l-7.66,0l3.841,6.631Z" style="fill:#86c0d1;fill-rule:nonzero;"/><path d="M975.584,1859.39l3.819,-6.63l-7.66,0l3.841,6.63Z" style="fill:#86c0d1;fill-rule:nonzero;"/><path d="M975.584,1851.83l3.819,-6.647l-7.66,-0l3.841,6.647Z" style="fill:#86c0d1;fill-rule:nonzero;"/><path d="M975.584,1883.01l3.819,6.631l-7.66,-0l3.841,-6.631Z" style="fill:#7a9ace;fill-rule:nonzero;"/><path d="M975.584,1890.56l3.819,6.647l-7.66,-0l3.841,-6.647Z" style="fill:#7a9ace;fill-rule:nonzero;"/><path d="M975.584,1898.13l3.819,6.631l-7.66,-0l3.841,-6.631Z" style="fill:#7a9ace;fill-rule:nonzero;"/><path d="M975.584,1905.7l3.819,6.63l-7.66,0l3.841,-6.63Z" style="fill:#7a9ace;fill-rule:nonzero;"/><path d="M975.584,1913.26l3.819,6.647l-7.66,-0l3.841,-6.647Z" style="fill:#7a9ace;fill-rule:nonzero;"/><path d="M975.584,2010.67l3.819,-6.63l-7.66,-0l3.841,6.63Z" style="fill:#7a9ace;fill-rule:nonzero;"/><path d="M975.584,2003.12l3.819,-6.647l-7.66,-0l3.841,6.647Z" style="fill:#7a9ace;fill-rule:nonzero;"/><path d="M975.584,1995.55l3.819,-6.631l-7.66,0l3.841,6.631Z" style="fill:#7a9ace;fill-rule:nonzero;"/><path d="M975.584,1988l3.819,-6.647l-7.66,0l3.841,6.647Z" style="fill:#7a9ace;fill-rule:nonzero;"/><path d="M975.584,1980.42l3.819,-6.63l-7.66,-0l3.841,6.63Z" style="fill:#7a9ace;fill-rule:nonzero;"/><path d="M975.584,2040.94l3.819,-6.63l-7.66,-0l3.841,6.63Z" style="fill:#7a9ace;fill-rule:nonzero;"/><path d="M975.584,2033.39l3.819,-6.647l-7.66,0l3.841,6.647Z" style="fill:#7a9ace;fill-rule:nonzero;"/><path d="M975.584,2025.82l3.819,-6.631l-7.66,0l3.841,6.631Z" style="fill:#7a9ace;fill-rule:nonzero;"/><path d="M975.584,2018.25l3.819,-6.63l-7.66,-0l3.841,6.63Z" style="fill:#7a9ace;fill-rule:nonzero;"/><path d="M975.584,2041.87l3.819,6.647l-7.66,0l3.841,-6.647Z" style="fill:#edd58a;fill-rule:nonzero;"/><path d="M1151.97,1503.81l3.841,-6.63l-7.682,-0l3.841,6.63Z" style="fill:#a091b7;fill-rule:nonzero;"/><path d="M1151.97,1496.26l3.841,-6.647l-7.682,-0l3.841,6.647Z" style="fill:#a091b7;fill-rule:nonzero;"/><path d="M1151.97,1488.69l3.841,-6.63l-7.682,-0l3.841,6.63Z" style="fill:#a091b7;fill-rule:nonzero;"/><path d="M1151.97,1481.12l3.841,-6.631l-7.682,0l3.841,6.631Z" style="fill:#a091b7;fill-rule:nonzero;"/><path d="M1151.97,1473.56l3.841,-6.647l-7.682,-0l3.841,6.647Z" style="fill:#a091b7;fill-rule:nonzero;"/><path d="M1151.97,1465.99l3.841,-6.63l-7.682,-0l3.841,6.63Z" style="fill:#a091b7;fill-rule:nonzero;"/><path d="M1151.97,1504.75l3.841,6.631l-7.682,-0l3.841,-6.631Z" style="fill:#97bf8a;fill-rule:nonzero;"/><path d="M1151.97,1512.31l3.841,6.647l-7.682,-0l3.841,-6.647Z" style="fill:#97bf8a;fill-rule:nonzero;"/><path d="M1151.97,1519.88l3.841,6.63l-7.682,-0l3.841,-6.63Z" style="fill:#97bf8a;fill-rule:nonzero;"/><path d="M1151.97,1527.45l3.841,6.63l-7.682,0l3.841,-6.63Z" style="fill:#97bf8a;fill-rule:nonzero;"/><path d="M1151.97,1632.42l3.841,-6.631l-7.682,0l3.841,6.631Z" style="fill:#97bf8a;fill-rule:nonzero;"/><path d="M1151.97,1624.87l3.841,-6.647l-7.682,0l3.841,6.647Z" style="fill:#97bf8a;fill-rule:nonzero;"/><path d="M1151.97,1617.3l3.841,-6.63l-7.682,0l3.841,6.63Z" style="fill:#97bf8a;fill-rule:nonzero;"/><path d="M1151.97,1609.72l3.841,-6.63l-7.682,-0l3.841,6.63Z" style="fill:#97bf8a;fill-rule:nonzero;"/><path d="M1151.97,1602.17l3.841,-6.647l-7.682,-0l3.841,6.647Z" style="fill:#97bf8a;fill-rule:nonzero;"/><path d="M1151.97,1594.6l3.841,-6.631l-7.682,0l3.841,6.631Z" style="fill:#97bf8a;fill-rule:nonzero;"/><path d="M1151.97,1633.36l3.841,6.63l-7.682,0l3.841,-6.63Z" style="fill:#b4b4b4;fill-rule:nonzero;"/><path d="M1151.97,1640.92l3.841,6.647l-7.682,0l3.841,-6.647Z" style="fill:#b4b4b4;fill-rule:nonzero;"/><path d="M1151.97,1648.49l3.841,6.63l-7.682,0l3.841,-6.63Z" style="fill:#b4b4b4;fill-rule:nonzero;"/><path d="M1151.97,1656.06l3.841,6.631l-7.682,-0l3.841,-6.631Z" style="fill:#b4b4b4;fill-rule:nonzero;"/><path d="M1151.97,1753.48l3.841,-6.63l-7.682,0l3.841,6.63Z" style="fill:#b4b4b4;fill-rule:nonzero;"/><path d="M1151.97,1745.92l3.841,-6.647l-7.682,-0l3.841,6.647Z" style="fill:#b4b4b4;fill-rule:nonzero;"/><path d="M1151.97,1738.35l3.841,-6.631l-7.682,0l3.841,6.631Z" style="fill:#b4b4b4;fill-rule:nonzero;"/><path d="M1151.97,1730.78l3.841,-6.631l-7.682,0l3.841,6.631Z" style="fill:#b4b4b4;fill-rule:nonzero;"/><path d="M1151.97,1723.23l3.841,-6.647l-7.682,0l3.841,6.647Z" style="fill:#b4b4b4;fill-rule:nonzero;"/><path d="M1151.97,1754.4l3.841,6.63l-7.682,0l3.841,-6.63Z" style="fill:#7a9ace;fill-rule:nonzero;"/><path d="M1151.97,1761.97l3.841,6.63l-7.682,0l3.841,-6.63Z" style="fill:#7a9ace;fill-rule:nonzero;"/><path d="M1151.97,1769.53l3.841,6.647l-7.682,0l3.841,-6.647Z" style="fill:#7a9ace;fill-rule:nonzero;"/><path d="M1151.97,1777.1l3.841,6.631l-7.682,-0l3.841,-6.631Z" style="fill:#7a9ace;fill-rule:nonzero;"/><path d="M1151.97,1784.65l3.841,6.647l-7.682,-0l3.841,-6.647Z" style="fill:#7a9ace;fill-rule:nonzero;"/><path d="M1151.97,1882.08l3.841,-6.63l-7.682,-0l3.841,6.63Z" style="fill:#7a9ace;fill-rule:nonzero;"/><path d="M1151.97,1874.53l3.841,-6.647l-7.682,-0l3.841,6.647Z" style="fill:#7a9ace;fill-rule:nonzero;"/><path d="M1151.97,1866.96l3.841,-6.631l-7.682,0l3.841,6.631Z" style="fill:#7a9ace;fill-rule:nonzero;"/><path d="M1151.97,1859.39l3.841,-6.63l-7.682,0l3.841,6.63Z" style="fill:#7a9ace;fill-rule:nonzero;"/><path d="M1151.97,1851.83l3.841,-6.647l-7.682,-0l3.841,6.647Z" style="fill:#7a9ace;fill-rule:nonzero;"/><path d="M1151.97,1889.64l3.841,-6.631l-7.682,0l3.841,6.631Z" style="fill:#7a9ace;fill-rule:nonzero;"/><path d="M1151.97,1890.56l3.841,6.647l-7.682,-0l3.841,-6.647Z" style="fill:#86c0d1;fill-rule:nonzero;"/><path d="M1151.97,1898.13l3.841,6.631l-7.682,-0l3.841,-6.631Z" style="fill:#86c0d1;fill-rule:nonzero;"/><path d="M1151.97,1905.7l3.841,6.63l-7.682,0l3.841,-6.63Z" style="fill:#86c0d1;fill-rule:nonzero;"/><path d="M1151.97,1913.26l3.841,6.647l-7.682,-0l3.841,-6.647Z" style="fill:#86c0d1;fill-rule:nonzero;"/><path d="M1151.97,2010.67l3.841,-6.63l-7.682,-0l3.841,6.63Z" style="fill:#86c0d1;fill-rule:nonzero;"/><path d="M1151.97,2003.12l3.841,-6.647l-7.682,-0l3.841,6.647Z" style="fill:#86c0d1;fill-rule:nonzero;"/><path d="M1151.97,1995.55l3.841,-6.631l-7.682,0l3.841,6.631Z" style="fill:#86c0d1;fill-rule:nonzero;"/><path d="M1151.97,1988l3.841,-6.647l-7.682,0l3.841,6.647Z" style="fill:#86c0d1;fill-rule:nonzero;"/><path d="M1151.97,1980.42l3.841,-6.63l-7.682,-0l3.841,6.63Z" style="fill:#86c0d1;fill-rule:nonzero;"/><path d="M1151.97,2033.37l3.841,-6.63l-7.682,-0l3.841,6.63Z" style="fill:#86c0d1;fill-rule:nonzero;"/><path d="M1151.97,2025.82l3.841,-6.647l-7.682,-0l3.841,6.647Z" style="fill:#86c0d1;fill-rule:nonzero;"/><path d="M1151.97,2018.25l3.841,-6.63l-7.682,-0l3.841,6.63Z" style="fill:#86c0d1;fill-rule:nonzero;"/><path d="M1151.97,2034.31l3.841,6.631l-7.682,-0l3.841,-6.631Z" style="fill:#edd58a;fill-rule:nonzero;"/><path d="M1151.97,2041.87l3.841,6.647l-7.682,0l3.841,-6.647Z" style="fill:#edd58a;fill-rule:nonzero;"/><path d="M1328.35,1518.95l3.841,-6.63l-7.659,-0l3.818,6.63Z" style="fill:#a091b7;fill-rule:nonzero;"/><path d="M1328.35,1511.4l3.841,-6.647l-7.659,-0l3.818,6.647Z" style="fill:#a091b7;fill-rule:nonzero;"/><path d="M1328.35,1503.83l3.841,-6.631l-7.659,0l3.818,6.631Z" style="fill:#a091b7;fill-rule:nonzero;"/><path d="M1328.35,1496.26l3.841,-6.631l-7.659,0l3.818,6.631Z" style="fill:#a091b7;fill-rule:nonzero;"/><path d="M1328.35,1488.7l3.841,-6.647l-7.659,0l3.818,6.647Z" style="fill:#a091b7;fill-rule:nonzero;"/><path d="M1328.35,1481.13l3.841,-6.63l-7.659,-0l3.818,6.63Z" style="fill:#a091b7;fill-rule:nonzero;"/><path d="M1328.35,1473.56l3.841,-6.63l-7.659,-0l3.818,6.63Z" style="fill:#a091b7;fill-rule:nonzero;"/><path d="M1328.35,1466.01l3.841,-6.647l-7.659,0l3.818,6.647Z" style="fill:#a091b7;fill-rule:nonzero;"/><path d="M1328.35,1519.88l3.841,6.63l-7.659,-0l3.818,-6.63Z" style="fill:#7a9ace;fill-rule:nonzero;"/><path d="M1328.35,1527.45l3.841,6.63l-7.659,0l3.818,-6.63Z" style="fill:#7a9ace;fill-rule:nonzero;"/><path d="M1328.35,1632.42l3.841,-6.631l-7.659,0l3.818,6.631Z" style="fill:#7a9ace;fill-rule:nonzero;"/><path d="M1328.35,1624.87l3.841,-6.647l-7.659,0l3.818,6.647Z" style="fill:#7a9ace;fill-rule:nonzero;"/><path d="M1328.35,1617.3l3.841,-6.63l-7.659,0l3.818,6.63Z" style="fill:#7a9ace;fill-rule:nonzero;"/><path d="M1328.35,1609.72l3.841,-6.63l-7.659,-0l3.818,6.63Z" style="fill:#7a9ace;fill-rule:nonzero;"/><path d="M1328.35,1602.17l3.841,-6.647l-7.659,-0l3.818,6.647Z" style="fill:#7a9ace;fill-rule:nonzero;"/><path d="M1328.35,1594.6l3.841,-6.631l-7.659,0l3.818,6.631Z" style="fill:#7a9ace;fill-rule:nonzero;"/><path d="M1328.35,1633.36l3.841,6.63l-7.659,0l3.818,-6.63Z" style="fill:#97bf8a;fill-rule:nonzero;"/><path d="M1328.35,1640.92l3.841,6.647l-7.659,0l3.818,-6.647Z" style="fill:#97bf8a;fill-rule:nonzero;"/><path d="M1328.35,1648.49l3.841,6.63l-7.659,0l3.818,-6.63Z" style="fill:#97bf8a;fill-rule:nonzero;"/><path d="M1328.35,1656.06l3.841,6.631l-7.659,-0l3.818,-6.631Z" style="fill:#97bf8a;fill-rule:nonzero;"/><path d="M1328.35,1753.48l3.841,-6.63l-7.659,0l3.818,6.63Z" style="fill:#97bf8a;fill-rule:nonzero;"/><path d="M1328.35,1745.92l3.841,-6.647l-7.659,-0l3.818,6.647Z" style="fill:#97bf8a;fill-rule:nonzero;"/><path d="M1328.35,1738.35l3.841,-6.631l-7.659,0l3.818,6.631Z" style="fill:#97bf8a;fill-rule:nonzero;"/><path d="M1328.35,1730.78l3.841,-6.631l-7.659,0l3.818,6.631Z" style="fill:#97bf8a;fill-rule:nonzero;"/><path d="M1328.35,1723.23l3.841,-6.647l-7.659,0l3.818,6.647Z" style="fill:#97bf8a;fill-rule:nonzero;"/><path d="M1328.35,1754.4l3.841,6.63l-7.659,0l3.818,-6.63Z" style="fill:#b4b4b4;fill-rule:nonzero;"/><path d="M1328.35,1761.97l3.841,6.63l-7.659,0l3.818,-6.63Z" style="fill:#b4b4b4;fill-rule:nonzero;"/><path d="M1328.35,1769.53l3.841,6.647l-7.659,0l3.818,-6.647Z" style="fill:#b4b4b4;fill-rule:nonzero;"/><path d="M1328.35,1777.1l3.841,6.631l-7.659,-0l3.818,-6.631Z" style="fill:#b4b4b4;fill-rule:nonzero;"/><path d="M1328.35,1784.65l3.841,6.647l-7.659,-0l3.818,-6.647Z" style="fill:#b4b4b4;fill-rule:nonzero;"/><path d="M1328.35,1882.08l3.841,-6.63l-7.659,-0l3.818,6.63Z" style="fill:#b4b4b4;fill-rule:nonzero;"/><path d="M1328.35,1874.53l3.841,-6.647l-7.659,-0l3.818,6.647Z" style="fill:#b4b4b4;fill-rule:nonzero;"/><path d="M1328.35,1866.96l3.841,-6.631l-7.659,0l3.818,6.631Z" style="fill:#b4b4b4;fill-rule:nonzero;"/><path d="M1328.35,1859.39l3.841,-6.63l-7.659,0l3.818,6.63Z" style="fill:#b4b4b4;fill-rule:nonzero;"/><path d="M1328.35,1851.83l3.841,-6.647l-7.659,-0l3.818,6.647Z" style="fill:#b4b4b4;fill-rule:nonzero;"/><path d="M1328.35,1889.64l3.841,-6.631l-7.659,0l3.818,6.631Z" style="fill:#b4b4b4;fill-rule:nonzero;"/><path d="M1328.35,1890.56l3.841,6.647l-7.659,-0l3.818,-6.647Z" style="fill:#86c0d1;fill-rule:nonzero;"/><path d="M1328.35,1898.13l3.841,6.631l-7.659,-0l3.818,-6.631Z" style="fill:#86c0d1;fill-rule:nonzero;"/><path d="M1328.35,1905.7l3.841,6.63l-7.659,0l3.818,-6.63Z" style="fill:#86c0d1;fill-rule:nonzero;"/><path d="M1328.35,1913.26l3.841,6.647l-7.659,-0l3.818,-6.647Z" style="fill:#86c0d1;fill-rule:nonzero;"/><path d="M1328.35,2010.67l3.841,-6.63l-7.659,-0l3.818,6.63Z" style="fill:#86c0d1;fill-rule:nonzero;"/><path d="M1328.35,2003.12l3.841,-6.647l-7.659,-0l3.818,6.647Z" style="fill:#86c0d1;fill-rule:nonzero;"/><path d="M1328.35,1995.55l3.841,-6.631l-7.659,0l3.818,6.631Z" style="fill:#86c0d1;fill-rule:nonzero;"/><path d="M1328.35,1988l3.841,-6.647l-7.659,0l3.818,6.647Z" style="fill:#86c0d1;fill-rule:nonzero;"/><path d="M1328.35,1980.42l3.841,-6.63l-7.659,-0l3.818,6.63Z" style="fill:#86c0d1;fill-rule:nonzero;"/><path d="M1328.35,2018.25l3.841,-6.63l-7.659,-0l3.818,6.63Z" style="fill:#86c0d1;fill-rule:nonzero;"/><path d="M1328.35,2019.17l3.841,6.647l-7.659,-0l3.818,-6.647Z" style="fill:#edd58a;fill-rule:nonzero;"/><path d="M1328.35,2026.74l3.841,6.63l-7.659,0l3.818,-6.63Z" style="fill:#edd58a;fill-rule:nonzero;"/><path d="M1328.35,2034.31l3.841,6.631l-7.659,-0l3.818,-6.631Z" style="fill:#edd58a;fill-rule:nonzero;"/><path d="M1328.35,2041.87l3.841,6.647l-7.659,0l3.818,-6.647Z" style="fill:#edd58a;fill-rule:nonzero;"/><path d="M1504.74,1511.38l3.841,-6.63l-7.66,0l3.819,6.63Z" style="fill:#a091b7;fill-rule:nonzero;"/><path d="M1504.74,1503.83l3.841,-6.647l-7.66,-0l3.819,6.647Z" style="fill:#a091b7;fill-rule:nonzero;"/><path d="M1504.74,1496.26l3.841,-6.631l-7.66,0l3.819,6.631Z" style="fill:#a091b7;fill-rule:nonzero;"/><path d="M1504.74,1488.69l3.841,-6.63l-7.66,-0l3.819,6.63Z" style="fill:#a091b7;fill-rule:nonzero;"/><path d="M1504.74,1481.13l3.841,-6.647l-7.66,0l3.819,6.647Z" style="fill:#a091b7;fill-rule:nonzero;"/><path d="M1504.74,1473.56l3.841,-6.63l-7.66,-0l3.819,6.63Z" style="fill:#a091b7;fill-rule:nonzero;"/><path d="M1504.74,1465.99l3.841,-6.631l-7.66,0l3.819,6.631Z" style="fill:#a091b7;fill-rule:nonzero;"/><path d="M1504.74,1512.31l3.841,6.647l-7.66,-0l3.819,-6.647Z" style="fill:#7a9ace;fill-rule:nonzero;"/><path d="M1504.74,1519.88l3.841,6.63l-7.66,-0l3.819,-6.63Z" style="fill:#7a9ace;fill-rule:nonzero;"/><path d="M1504.74,1527.45l3.841,6.63l-7.66,0l3.819,-6.63Z" style="fill:#7a9ace;fill-rule:nonzero;"/><path d="M1504.74,1639.99l3.841,-6.63l-7.66,-0l3.819,6.63Z" style="fill:#7a9ace;fill-rule:nonzero;"/><path d="M1504.74,1632.44l3.841,-6.647l-7.66,-0l3.819,6.647Z" style="fill:#7a9ace;fill-rule:nonzero;"/><path d="M1504.74,1624.87l3.841,-6.631l-7.66,0l3.819,6.631Z" style="fill:#7a9ace;fill-rule:nonzero;"/><path d="M1504.74,1617.3l3.841,-6.63l-7.66,0l3.819,6.63Z" style="fill:#7a9ace;fill-rule:nonzero;"/><path d="M1504.74,1609.74l3.841,-6.647l-7.66,-0l3.819,6.647Z" style="fill:#7a9ace;fill-rule:nonzero;"/><path d="M1504.74,1602.17l3.841,-6.631l-7.66,0l3.819,6.631Z" style="fill:#7a9ace;fill-rule:nonzero;"/><path d="M1504.74,1594.6l3.841,-6.631l-7.66,0l3.819,6.631Z" style="fill:#7a9ace;fill-rule:nonzero;"/><path d="M1504.74,1640.92l3.841,6.647l-7.66,0l3.819,-6.647Z" style="fill:#97bf8a;fill-rule:nonzero;"/><path d="M1504.74,1648.49l3.841,6.63l-7.66,0l3.819,-6.63Z" style="fill:#97bf8a;fill-rule:nonzero;"/><path d="M1504.74,1656.06l3.841,6.631l-7.66,-0l3.819,-6.631Z" style="fill:#97bf8a;fill-rule:nonzero;"/><path d="M1504.74,1753.48l3.841,-6.63l-7.66,0l3.819,6.63Z" style="fill:#97bf8a;fill-rule:nonzero;"/><path d="M1504.74,1745.92l3.841,-6.647l-7.66,-0l3.819,6.647Z" style="fill:#97bf8a;fill-rule:nonzero;"/><path d="M1504.74,1738.35l3.841,-6.631l-7.66,0l3.819,6.631Z" style="fill:#97bf8a;fill-rule:nonzero;"/><path d="M1504.74,1730.78l3.841,-6.631l-7.66,0l3.819,6.631Z" style="fill:#97bf8a;fill-rule:nonzero;"/><path d="M1504.74,1723.23l3.841,-6.647l-7.66,0l3.819,6.647Z" style="fill:#97bf8a;fill-rule:nonzero;"/><path d="M1504.74,1754.4l3.841,6.63l-7.66,0l3.819,-6.63Z" style="fill:#b4b4b4;fill-rule:nonzero;"/><path d="M1504.74,1761.97l3.841,6.63l-7.66,0l3.819,-6.63Z" style="fill:#b4b4b4;fill-rule:nonzero;"/><path d="M1504.74,1769.53l3.841,6.647l-7.66,0l3.819,-6.647Z" style="fill:#b4b4b4;fill-rule:nonzero;"/><path d="M1504.74,1777.1l3.841,6.631l-7.66,-0l3.819,-6.631Z" style="fill:#b4b4b4;fill-rule:nonzero;"/><path d="M1504.74,1784.65l3.841,6.647l-7.66,-0l3.819,-6.647Z" style="fill:#b4b4b4;fill-rule:nonzero;"/><path d="M1504.74,1882.08l3.841,-6.63l-7.66,-0l3.819,6.63Z" style="fill:#b4b4b4;fill-rule:nonzero;"/><path d="M1504.74,1874.53l3.841,-6.647l-7.66,-0l3.819,6.647Z" style="fill:#b4b4b4;fill-rule:nonzero;"/><path d="M1504.74,1866.96l3.841,-6.631l-7.66,0l3.819,6.631Z" style="fill:#b4b4b4;fill-rule:nonzero;"/><path d="M1504.74,1859.39l3.841,-6.63l-7.66,0l3.819,6.63Z" style="fill:#b4b4b4;fill-rule:nonzero;"/><path d="M1504.74,1851.83l3.841,-6.647l-7.66,-0l3.819,6.647Z" style="fill:#b4b4b4;fill-rule:nonzero;"/><path d="M1504.74,1889.64l3.841,-6.631l-7.66,0l3.819,6.631Z" style="fill:#b4b4b4;fill-rule:nonzero;"/><path d="M1504.74,1890.56l3.841,6.647l-7.66,-0l3.819,-6.647Z" style="fill:#86c0d1;fill-rule:nonzero;"/><path d="M1504.74,1898.13l3.841,6.631l-7.66,-0l3.819,-6.631Z" style="fill:#86c0d1;fill-rule:nonzero;"/><path d="M1504.74,1905.7l3.841,6.63l-7.66,0l3.819,-6.63Z" style="fill:#86c0d1;fill-rule:nonzero;"/><path d="M1504.74,1913.26l3.841,6.647l-7.66,-0l3.819,-6.647Z" style="fill:#86c0d1;fill-rule:nonzero;"/><path d="M1504.74,2010.67l3.841,-6.63l-7.66,-0l3.819,6.63Z" style="fill:#86c0d1;fill-rule:nonzero;"/><path d="M1504.74,2003.12l3.841,-6.647l-7.66,-0l3.819,6.647Z" style="fill:#86c0d1;fill-rule:nonzero;"/><path d="M1504.74,1995.55l3.841,-6.631l-7.66,0l3.819,6.631Z" style="fill:#86c0d1;fill-rule:nonzero;"/><path d="M1504.74,1988l3.841,-6.647l-7.66,0l3.819,6.647Z" style="fill:#86c0d1;fill-rule:nonzero;"/><path d="M1504.74,1980.42l3.841,-6.63l-7.66,-0l3.819,6.63Z" style="fill:#86c0d1;fill-rule:nonzero;"/><path d="M1504.74,2011.62l3.841,6.63l-7.66,0l3.819,-6.63Z" style="fill:#edd58a;fill-rule:nonzero;"/><path d="M1504.74,2019.17l3.841,6.647l-7.66,-0l3.819,-6.647Z" style="fill:#edd58a;fill-rule:nonzero;"/><path d="M1504.74,2026.74l3.841,6.63l-7.66,0l3.819,-6.63Z" style="fill:#edd58a;fill-rule:nonzero;"/><path d="M1504.74,2034.31l3.841,6.631l-7.66,-0l3.819,-6.631Z" style="fill:#edd58a;fill-rule:nonzero;"/><path d="M1504.74,2041.87l3.841,6.647l-7.66,0l3.819,-6.647Z" style="fill:#edd58a;fill-rule:nonzero;"/><path d="M1745.11,1496.26l3.841,-6.631l-7.66,0l3.819,6.631Z" style="fill:#97bf8a;fill-rule:nonzero;"/><path d="M1745.11,1488.7l3.841,-6.647l-7.66,0l3.819,6.647Z" style="fill:#97bf8a;fill-rule:nonzero;"/><path d="M1745.11,1481.13l3.841,-6.63l-7.66,-0l3.819,6.63Z" style="fill:#97bf8a;fill-rule:nonzero;"/><path d="M1745.11,1473.56l3.841,-6.63l-7.66,-0l3.819,6.63Z" style="fill:#97bf8a;fill-rule:nonzero;"/><path d="M1745.11,1466.01l3.841,-6.647l-7.66,0l3.819,6.647Z" style="fill:#97bf8a;fill-rule:nonzero;"/><path d="M1745.11,1497.18l3.841,6.63l-7.66,0l3.819,-6.63Z" style="fill:#7a9ace;fill-rule:nonzero;"/><path d="M1745.11,1504.75l3.841,6.631l-7.66,-0l3.819,-6.631Z" style="fill:#7a9ace;fill-rule:nonzero;"/><path d="M1745.11,1512.31l3.841,6.647l-7.66,-0l3.819,-6.647Z" style="fill:#7a9ace;fill-rule:nonzero;"/><path d="M1745.11,1519.88l3.841,6.63l-7.66,-0l3.819,-6.63Z" style="fill:#7a9ace;fill-rule:nonzero;"/><path d="M1745.11,1527.45l3.841,6.63l-7.66,0l3.819,-6.63Z" style="fill:#7a9ace;fill-rule:nonzero;"/><path d="M1745.11,1624.87l3.841,-6.63l-7.66,-0l3.819,6.63Z" style="fill:#7a9ace;fill-rule:nonzero;"/><path d="M1745.11,1617.31l3.841,-6.647l-7.66,0l3.819,6.647Z" style="fill:#7a9ace;fill-rule:nonzero;"/><path d="M1745.11,1609.74l3.841,-6.63l-7.66,-0l3.819,6.63Z" style="fill:#7a9ace;fill-rule:nonzero;"/><path d="M1745.11,1602.17l3.841,-6.631l-7.66,0l3.819,6.631Z" style="fill:#7a9ace;fill-rule:nonzero;"/><path d="M1745.11,1594.62l3.841,-6.647l-7.66,-0l3.819,6.647Z" style="fill:#7a9ace;fill-rule:nonzero;"/><path d="M1745.11,1625.79l3.841,6.63l-7.66,0l3.819,-6.63Z" style="fill:#86c0d1;fill-rule:nonzero;"/><path d="M1745.11,1633.36l3.841,6.63l-7.66,0l3.819,-6.63Z" style="fill:#86c0d1;fill-rule:nonzero;"/><path d="M1745.11,1640.92l3.841,6.647l-7.66,0l3.819,-6.647Z" style="fill:#86c0d1;fill-rule:nonzero;"/><path d="M1745.11,1648.49l3.841,6.63l-7.66,0l3.819,-6.63Z" style="fill:#86c0d1;fill-rule:nonzero;"/><path d="M1745.11,1656.06l3.841,6.631l-7.66,-0l3.819,-6.631Z" style="fill:#86c0d1;fill-rule:nonzero;"/><path d="M1745.11,1753.48l3.841,-6.63l-7.66,0l3.819,6.63Z" style="fill:#86c0d1;fill-rule:nonzero;"/><path d="M1745.11,1745.92l3.841,-6.647l-7.66,-0l3.819,6.647Z" style="fill:#86c0d1;fill-rule:nonzero;"/><path d="M1745.11,1738.35l3.841,-6.631l-7.66,0l3.819,6.631Z" style="fill:#86c0d1;fill-rule:nonzero;"/><path d="M1745.11,1730.78l3.841,-6.631l-7.66,0l3.819,6.631Z" style="fill:#86c0d1;fill-rule:nonzero;"/><path d="M1745.11,1723.23l3.841,-6.647l-7.66,0l3.819,6.647Z" style="fill:#86c0d1;fill-rule:nonzero;"/><path d="M1745.11,1754.4l3.841,6.63l-7.66,0l3.819,-6.63Z" style="fill:#b4b4b4;fill-rule:nonzero;"/><path d="M1745.11,1761.97l3.841,6.63l-7.66,0l3.819,-6.63Z" style="fill:#b4b4b4;fill-rule:nonzero;"/><path d="M1745.11,1769.53l3.841,6.647l-7.66,0l3.819,-6.647Z" style="fill:#b4b4b4;fill-rule:nonzero;"/><path d="M1745.11,1777.1l3.841,6.631l-7.66,-0l3.819,-6.631Z" style="fill:#b4b4b4;fill-rule:nonzero;"/><path d="M1745.11,1784.65l3.841,6.647l-7.66,-0l3.819,-6.647Z" style="fill:#b4b4b4;fill-rule:nonzero;"/><path d="M1745.11,1882.08l3.841,-6.63l-7.66,-0l3.819,6.63Z" style="fill:#b4b4b4;fill-rule:nonzero;"/><path d="M1745.11,1874.53l3.841,-6.647l-7.66,-0l3.819,6.647Z" style="fill:#b4b4b4;fill-rule:nonzero;"/><path d="M1745.11,1866.96l3.841,-6.631l-7.66,0l3.819,6.631Z" style="fill:#b4b4b4;fill-rule:nonzero;"/><path d="M1745.11,1859.39l3.841,-6.63l-7.66,0l3.819,6.63Z" style="fill:#b4b4b4;fill-rule:nonzero;"/><path d="M1745.11,1851.83l3.841,-6.647l-7.66,-0l3.819,6.647Z" style="fill:#b4b4b4;fill-rule:nonzero;"/><path d="M1745.11,1883.01l3.841,6.631l-7.66,-0l3.819,-6.631Z" style="fill:#a091b7;fill-rule:nonzero;"/><path d="M1745.11,1890.56l3.841,6.647l-7.66,-0l3.819,-6.647Z" style="fill:#a091b7;fill-rule:nonzero;"/><path d="M1745.11,1898.13l3.841,6.631l-7.66,-0l3.819,-6.631Z" style="fill:#a091b7;fill-rule:nonzero;"/><path d="M1745.11,1905.7l3.841,6.63l-7.66,0l3.819,-6.63Z" style="fill:#a091b7;fill-rule:nonzero;"/><path d="M1745.11,1913.26l3.841,6.647l-7.66,-0l3.819,-6.647Z" style="fill:#a091b7;fill-rule:nonzero;"/><path d="M1745.11,2018.25l3.841,-6.63l-7.66,-0l3.819,6.63Z" style="fill:#a091b7;fill-rule:nonzero;"/><path d="M1745.11,2010.69l3.841,-6.647l-7.66,-0l3.819,6.647Z" style="fill:#a091b7;fill-rule:nonzero;"/><path d="M1745.11,2003.12l3.841,-6.63l-7.66,-0l3.819,6.63Z" style="fill:#a091b7;fill-rule:nonzero;"/><path d="M1745.11,1995.57l3.841,-6.647l-7.66,0l3.819,6.647Z" style="fill:#a091b7;fill-rule:nonzero;"/><path d="M1745.11,1988l3.841,-6.63l-7.66,-0l3.819,6.63Z" style="fill:#a091b7;fill-rule:nonzero;"/><path d="M1745.11,1980.42l3.841,-6.63l-7.66,-0l3.819,6.63Z" style="fill:#a091b7;fill-rule:nonzero;"/><path d="M1745.11,2019.17l3.841,6.647l-7.66,-0l3.819,-6.647Z" style="fill:#edd58a;fill-rule:nonzero;"/><path d="M1745.11,2026.74l3.841,6.63l-7.66,0l3.819,-6.63Z" style="fill:#edd58a;fill-rule:nonzero;"/><path d="M1745.11,2034.31l3.841,6.631l-7.66,-0l3.819,-6.631Z" style="fill:#edd58a;fill-rule:nonzero;"/><path d="M1745.11,2041.87l3.841,6.647l-7.66,0l3.819,-6.647Z" style="fill:#edd58a;fill-rule:nonzero;"/><path d="M1921.49,1496.26l3.841,-6.631l-7.66,0l3.819,6.631Z" style="fill:#7a9ace;fill-rule:nonzero;"/><path d="M1921.49,1488.7l3.841,-6.647l-7.66,0l3.819,6.647Z" style="fill:#7a9ace;fill-rule:nonzero;"/><path d="M1921.49,1481.13l3.841,-6.63l-7.66,-0l3.819,6.63Z" style="fill:#7a9ace;fill-rule:nonzero;"/><path d="M1921.49,1473.56l3.841,-6.63l-7.66,-0l3.819,6.63Z" style="fill:#7a9ace;fill-rule:nonzero;"/><path d="M1921.49,1466.01l3.841,-6.647l-7.66,0l3.819,6.647Z" style="fill:#7a9ace;fill-rule:nonzero;"/><path d="M1921.49,1497.18l3.841,6.63l-7.66,0l3.819,-6.63Z" style="fill:#97bf8a;fill-rule:nonzero;"/><path d="M1921.49,1504.75l3.841,6.631l-7.66,-0l3.819,-6.631Z" style="fill:#97bf8a;fill-rule:nonzero;"/><path d="M1921.49,1512.31l3.841,6.647l-7.66,-0l3.819,-6.647Z" style="fill:#97bf8a;fill-rule:nonzero;"/><path d="M1921.49,1519.88l3.841,6.63l-7.66,-0l3.819,-6.63Z" style="fill:#97bf8a;fill-rule:nonzero;"/><path d="M1921.49,1527.45l3.841,6.63l-7.66,0l3.819,-6.63Z" style="fill:#97bf8a;fill-rule:nonzero;"/><path d="M1921.49,1624.87l3.841,-6.63l-7.66,-0l3.819,6.63Z" style="fill:#97bf8a;fill-rule:nonzero;"/><path d="M1921.49,1617.31l3.841,-6.647l-7.66,0l3.819,6.647Z" style="fill:#97bf8a;fill-rule:nonzero;"/><path d="M1921.49,1609.74l3.841,-6.63l-7.66,-0l3.819,6.63Z" style="fill:#97bf8a;fill-rule:nonzero;"/><path d="M1921.49,1602.17l3.841,-6.631l-7.66,0l3.819,6.631Z" style="fill:#97bf8a;fill-rule:nonzero;"/><path d="M1921.49,1594.62l3.841,-6.647l-7.66,-0l3.819,6.647Z" style="fill:#97bf8a;fill-rule:nonzero;"/><path d="M1921.49,1625.79l3.841,6.63l-7.66,0l3.819,-6.63Z" style="fill:#86c0d1;fill-rule:nonzero;"/><path d="M1921.49,1633.36l3.841,6.63l-7.66,0l3.819,-6.63Z" style="fill:#86c0d1;fill-rule:nonzero;"/><path d="M1921.49,1640.92l3.841,6.647l-7.66,0l3.819,-6.647Z" style="fill:#86c0d1;fill-rule:nonzero;"/><path d="M1921.49,1648.49l3.841,6.63l-7.66,0l3.819,-6.63Z" style="fill:#86c0d1;fill-rule:nonzero;"/><path d="M1921.49,1656.06l3.841,6.631l-7.66,-0l3.819,-6.631Z" style="fill:#86c0d1;fill-rule:nonzero;"/><path d="M1921.49,1753.48l3.841,-6.63l-7.66,0l3.819,6.63Z" style="fill:#86c0d1;fill-rule:nonzero;"/><path d="M1921.49,1745.92l3.841,-6.647l-7.66,-0l3.819,6.647Z" style="fill:#86c0d1;fill-rule:nonzero;"/><path d="M1921.49,1738.35l3.841,-6.631l-7.66,0l3.819,6.631Z" style="fill:#86c0d1;fill-rule:nonzero;"/><path d="M1921.49,1730.78l3.841,-6.631l-7.66,0l3.819,6.631Z" style="fill:#86c0d1;fill-rule:nonzero;"/><path d="M1921.49,1723.23l3.841,-6.647l-7.66,0l3.819,6.647Z" style="fill:#86c0d1;fill-rule:nonzero;"/><path d="M1921.49,1754.4l3.841,6.63l-7.66,0l3.819,-6.63Z" style="fill:#b4b4b4;fill-rule:nonzero;"/><path d="M1921.49,1761.97l3.841,6.63l-7.66,0l3.819,-6.63Z" style="fill:#b4b4b4;fill-rule:nonzero;"/><path d="M1921.49,1769.53l3.841,6.647l-7.66,0l3.819,-6.647Z" style="fill:#b4b4b4;fill-rule:nonzero;"/><path d="M1921.49,1777.1l3.841,6.631l-7.66,-0l3.819,-6.631Z" style="fill:#b4b4b4;fill-rule:nonzero;"/><path d="M1921.49,1784.65l3.841,6.647l-7.66,-0l3.819,-6.647Z" style="fill:#b4b4b4;fill-rule:nonzero;"/><path d="M1921.49,1882.08l3.841,-6.63l-7.66,-0l3.819,6.63Z" style="fill:#b4b4b4;fill-rule:nonzero;"/><path d="M1921.49,1874.53l3.841,-6.647l-7.66,-0l3.819,6.647Z" style="fill:#b4b4b4;fill-rule:nonzero;"/><path d="M1921.49,1866.96l3.841,-6.631l-7.66,0l3.819,6.631Z" style="fill:#b4b4b4;fill-rule:nonzero;"/><path d="M1921.49,1859.39l3.841,-6.63l-7.66,0l3.819,6.63Z" style="fill:#b4b4b4;fill-rule:nonzero;"/><path d="M1921.49,1851.83l3.841,-6.647l-7.66,-0l3.819,6.647Z" style="fill:#b4b4b4;fill-rule:nonzero;"/><path d="M1921.49,1883.01l3.841,6.631l-7.66,-0l3.819,-6.631Z" style="fill:#a091b7;fill-rule:nonzero;"/><path d="M1921.49,1890.56l3.841,6.647l-7.66,-0l3.819,-6.647Z" style="fill:#a091b7;fill-rule:nonzero;"/><path d="M1921.49,1898.13l3.841,6.631l-7.66,-0l3.819,-6.631Z" style="fill:#a091b7;fill-rule:nonzero;"/><path d="M1921.49,1905.7l3.841,6.63l-7.66,0l3.819,-6.63Z" style="fill:#a091b7;fill-rule:nonzero;"/><path d="M1921.49,1913.26l3.841,6.647l-7.66,-0l3.819,-6.647Z" style="fill:#a091b7;fill-rule:nonzero;"/><path d="M1921.49,2018.25l3.841,-6.63l-7.66,-0l3.819,6.63Z" style="fill:#a091b7;fill-rule:nonzero;"/><path d="M1921.49,2010.69l3.841,-6.647l-7.66,-0l3.819,6.647Z" style="fill:#a091b7;fill-rule:nonzero;"/><path d="M1921.49,2003.12l3.841,-6.63l-7.66,-0l3.819,6.63Z" style="fill:#a091b7;fill-rule:nonzero;"/><path d="M1921.49,1995.57l3.841,-6.647l-7.66,0l3.819,6.647Z" style="fill:#a091b7;fill-rule:nonzero;"/><path d="M1921.49,1988l3.841,-6.63l-7.66,-0l3.819,6.63Z" style="fill:#a091b7;fill-rule:nonzero;"/><path d="M1921.49,1980.42l3.841,-6.63l-7.66,-0l3.819,6.63Z" style="fill:#a091b7;fill-rule:nonzero;"/><path d="M1921.49,2019.17l3.841,6.647l-7.66,-0l3.819,-6.647Z" style="fill:#edd58a;fill-rule:nonzero;"/><path d="M1921.49,2026.74l3.841,6.63l-7.66,0l3.819,-6.63Z" style="fill:#edd58a;fill-rule:nonzero;"/><path d="M1921.49,2034.31l3.841,6.631l-7.66,-0l3.819,-6.631Z" style="fill:#edd58a;fill-rule:nonzero;"/><path d="M1921.49,2041.87l3.841,6.647l-7.66,0l3.819,-6.647Z" style="fill:#edd58a;fill-rule:nonzero;"/><path d="M2097.89,1496.26l3.818,-6.631l-7.659,0l3.841,6.631Z" style="fill:#7a9ace;fill-rule:nonzero;"/><path d="M2097.89,1488.7l3.818,-6.647l-7.659,0l3.841,6.647Z" style="fill:#7a9ace;fill-rule:nonzero;"/><path d="M2097.89,1481.13l3.818,-6.63l-7.659,-0l3.841,6.63Z" style="fill:#7a9ace;fill-rule:nonzero;"/><path d="M2097.89,1473.56l3.818,-6.63l-7.659,-0l3.841,6.63Z" style="fill:#7a9ace;fill-rule:nonzero;"/><path d="M2097.89,1466.01l3.818,-6.647l-7.659,0l3.841,6.647Z" style="fill:#7a9ace;fill-rule:nonzero;"/><path d="M2097.89,1497.18l3.818,6.63l-7.659,0l3.841,-6.63Z" style="fill:#86c0d1;fill-rule:nonzero;"/><path d="M2097.89,1504.75l3.818,6.631l-7.659,-0l3.841,-6.631Z" style="fill:#86c0d1;fill-rule:nonzero;"/><path d="M2097.89,1512.31l3.818,6.647l-7.659,-0l3.841,-6.647Z" style="fill:#86c0d1;fill-rule:nonzero;"/><path d="M2097.89,1519.88l3.818,6.63l-7.659,-0l3.841,-6.63Z" style="fill:#86c0d1;fill-rule:nonzero;"/><path d="M2097.89,1527.45l3.818,6.63l-7.659,0l3.841,-6.63Z" style="fill:#86c0d1;fill-rule:nonzero;"/><path d="M2097.89,1624.87l3.818,-6.63l-7.659,-0l3.841,6.63Z" style="fill:#86c0d1;fill-rule:nonzero;"/><path d="M2097.89,1617.31l3.818,-6.647l-7.659,0l3.841,6.647Z" style="fill:#86c0d1;fill-rule:nonzero;"/><path d="M2097.89,1609.74l3.818,-6.63l-7.659,-0l3.841,6.63Z" style="fill:#86c0d1;fill-rule:nonzero;"/><path d="M2097.89,1602.17l3.818,-6.631l-7.659,0l3.841,6.631Z" style="fill:#86c0d1;fill-rule:nonzero;"/><path d="M2097.89,1594.62l3.818,-6.647l-7.659,-0l3.841,6.647Z" style="fill:#86c0d1;fill-rule:nonzero;"/><path d="M2097.89,1625.79l3.818,6.63l-7.659,0l3.841,-6.63Z" style="fill:#b4b4b4;fill-rule:nonzero;"/><path d="M2097.89,1633.36l3.818,6.63l-7.659,0l3.841,-6.63Z" style="fill:#b4b4b4;fill-rule:nonzero;"/><path d="M2097.89,1640.92l3.818,6.647l-7.659,0l3.841,-6.647Z" style="fill:#b4b4b4;fill-rule:nonzero;"/><path d="M2097.89,1648.49l3.818,6.63l-7.659,0l3.841,-6.63Z" style="fill:#b4b4b4;fill-rule:nonzero;"/><path d="M2097.89,1656.06l3.818,6.631l-7.659,-0l3.841,-6.631Z" style="fill:#b4b4b4;fill-rule:nonzero;"/><path d="M2097.89,1753.48l3.818,-6.63l-7.659,0l3.841,6.63Z" style="fill:#b4b4b4;fill-rule:nonzero;"/><path d="M2097.89,1745.92l3.818,-6.647l-7.659,-0l3.841,6.647Z" style="fill:#b4b4b4;fill-rule:nonzero;"/><path d="M2097.89,1738.35l3.818,-6.631l-7.659,0l3.841,6.631Z" style="fill:#b4b4b4;fill-rule:nonzero;"/><path d="M2097.89,1730.78l3.818,-6.631l-7.659,0l3.841,6.631Z" style="fill:#b4b4b4;fill-rule:nonzero;"/><path d="M2097.89,1723.23l3.818,-6.647l-7.659,0l3.841,6.647Z" style="fill:#b4b4b4;fill-rule:nonzero;"/><path d="M2097.89,1754.4l3.818,6.63l-7.659,0l3.841,-6.63Z" style="fill:#97bf8a;fill-rule:nonzero;"/><path d="M2097.89,1761.97l3.818,6.63l-7.659,0l3.841,-6.63Z" style="fill:#97bf8a;fill-rule:nonzero;"/><path d="M2097.89,1769.53l3.818,6.647l-7.659,0l3.841,-6.647Z" style="fill:#97bf8a;fill-rule:nonzero;"/><path d="M2097.89,1777.1l3.818,6.631l-7.659,-0l3.841,-6.631Z" style="fill:#97bf8a;fill-rule:nonzero;"/><path d="M2097.89,1784.65l3.818,6.647l-7.659,-0l3.841,-6.647Z" style="fill:#97bf8a;fill-rule:nonzero;"/><path d="M2097.89,1882.08l3.818,-6.63l-7.659,-0l3.841,6.63Z" style="fill:#97bf8a;fill-rule:nonzero;"/><path d="M2097.89,1874.53l3.818,-6.647l-7.659,-0l3.841,6.647Z" style="fill:#97bf8a;fill-rule:nonzero;"/><path d="M2097.89,1866.96l3.818,-6.631l-7.659,0l3.841,6.631Z" style="fill:#97bf8a;fill-rule:nonzero;"/><path d="M2097.89,1859.39l3.818,-6.63l-7.659,0l3.841,6.63Z" style="fill:#97bf8a;fill-rule:nonzero;"/><path d="M2097.89,1851.83l3.818,-6.647l-7.659,-0l3.841,6.647Z" style="fill:#97bf8a;fill-rule:nonzero;"/><path d="M2097.89,1883.01l3.818,6.631l-7.659,-0l3.841,-6.631Z" style="fill:#a091b7;fill-rule:nonzero;"/><path d="M2097.89,1890.56l3.818,6.647l-7.659,-0l3.841,-6.647Z" style="fill:#a091b7;fill-rule:nonzero;"/><path d="M2097.89,1898.13l3.818,6.631l-7.659,-0l3.841,-6.631Z" style="fill:#a091b7;fill-rule:nonzero;"/><path d="M2097.89,1905.7l3.818,6.63l-7.659,0l3.841,-6.63Z" style="fill:#a091b7;fill-rule:nonzero;"/><path d="M2097.89,1913.26l3.818,6.647l-7.659,-0l3.841,-6.647Z" style="fill:#a091b7;fill-rule:nonzero;"/><path d="M2097.89,2010.67l3.818,-6.63l-7.659,-0l3.841,6.63Z" style="fill:#a091b7;fill-rule:nonzero;"/><path d="M2097.89,2003.12l3.818,-6.647l-7.659,-0l3.841,6.647Z" style="fill:#a091b7;fill-rule:nonzero;"/><path d="M2097.89,1995.55l3.818,-6.631l-7.659,0l3.841,6.631Z" style="fill:#a091b7;fill-rule:nonzero;"/><path d="M2097.89,1988l3.818,-6.647l-7.659,0l3.841,6.647Z" style="fill:#a091b7;fill-rule:nonzero;"/><path d="M2097.89,1980.42l3.818,-6.63l-7.659,-0l3.841,6.63Z" style="fill:#a091b7;fill-rule:nonzero;"/><path d="M2097.89,2011.62l3.818,6.63l-7.659,0l3.841,-6.63Z" style="fill:#edd58a;fill-rule:nonzero;"/><path d="M2097.89,2019.17l3.818,6.647l-7.659,-0l3.841,-6.647Z" style="fill:#edd58a;fill-rule:nonzero;"/><path d="M2097.89,2026.74l3.818,6.63l-7.659,0l3.841,-6.63Z" style="fill:#edd58a;fill-rule:nonzero;"/><path d="M2097.89,2034.31l3.818,6.631l-7.659,-0l3.841,-6.631Z" style="fill:#edd58a;fill-rule:nonzero;"/><path d="M2097.89,2041.87l3.818,6.647l-7.659,0l3.841,-6.647Z" style="fill:#edd58a;fill-rule:nonzero;"/><path d="M2274.28,1496.26l3.818,-6.631l-7.659,0l3.841,6.631Z" style="fill:#7a9ace;fill-rule:nonzero;"/><path d="M2274.28,1488.7l3.818,-6.647l-7.659,0l3.841,6.647Z" style="fill:#7a9ace;fill-rule:nonzero;"/><path d="M2274.28,1481.13l3.818,-6.63l-7.659,-0l3.841,6.63Z" style="fill:#7a9ace;fill-rule:nonzero;"/><path d="M2274.28,1473.56l3.818,-6.63l-7.659,-0l3.841,6.63Z" style="fill:#7a9ace;fill-rule:nonzero;"/><path d="M2274.28,1466.01l3.818,-6.647l-7.659,0l3.841,6.647Z" style="fill:#7a9ace;fill-rule:nonzero;"/><path d="M2274.28,1497.18l3.818,6.63l-7.659,0l3.841,-6.63Z" style="fill:#86c0d1;fill-rule:nonzero;"/><path d="M2274.28,1504.75l3.818,6.631l-7.659,-0l3.841,-6.631Z" style="fill:#86c0d1;fill-rule:nonzero;"/><path d="M2274.28,1512.31l3.818,6.647l-7.659,-0l3.841,-6.647Z" style="fill:#86c0d1;fill-rule:nonzero;"/><path d="M2274.28,1519.88l3.818,6.63l-7.659,-0l3.841,-6.63Z" style="fill:#86c0d1;fill-rule:nonzero;"/><path d="M2274.28,1527.45l3.818,6.63l-7.659,0l3.841,-6.63Z" style="fill:#86c0d1;fill-rule:nonzero;"/><path d="M2274.28,1624.87l3.818,-6.63l-7.659,-0l3.841,6.63Z" style="fill:#86c0d1;fill-rule:nonzero;"/><path d="M2274.28,1617.31l3.818,-6.647l-7.659,0l3.841,6.647Z" style="fill:#86c0d1;fill-rule:nonzero;"/><path d="M2274.28,1609.74l3.818,-6.63l-7.659,-0l3.841,6.63Z" style="fill:#86c0d1;fill-rule:nonzero;"/><path d="M2274.28,1602.17l3.818,-6.631l-7.659,0l3.841,6.631Z" style="fill:#86c0d1;fill-rule:nonzero;"/><path d="M2274.28,1594.62l3.818,-6.647l-7.659,-0l3.841,6.647Z" style="fill:#86c0d1;fill-rule:nonzero;"/><path d="M2274.28,1625.79l3.818,6.63l-7.659,0l3.841,-6.63Z" style="fill:#b4b4b4;fill-rule:nonzero;"/><path d="M2274.28,1633.36l3.818,6.63l-7.659,0l3.841,-6.63Z" style="fill:#b4b4b4;fill-rule:nonzero;"/><path d="M2274.28,1640.92l3.818,6.647l-7.659,0l3.841,-6.647Z" style="fill:#b4b4b4;fill-rule:nonzero;"/><path d="M2274.28,1648.49l3.818,6.63l-7.659,0l3.841,-6.63Z" style="fill:#b4b4b4;fill-rule:nonzero;"/><path d="M2274.28,1656.06l3.818,6.631l-7.659,-0l3.841,-6.631Z" style="fill:#b4b4b4;fill-rule:nonzero;"/><path d="M2274.28,1753.48l3.818,-6.63l-7.659,0l3.841,6.63Z" style="fill:#b4b4b4;fill-rule:nonzero;"/><path d="M2274.28,1745.92l3.818,-6.647l-7.659,-0l3.841,6.647Z" style="fill:#b4b4b4;fill-rule:nonzero;"/><path d="M2274.28,1738.35l3.818,-6.631l-7.659,0l3.841,6.631Z" style="fill:#b4b4b4;fill-rule:nonzero;"/><path d="M2274.28,1730.78l3.818,-6.631l-7.659,0l3.841,6.631Z" style="fill:#b4b4b4;fill-rule:nonzero;"/><path d="M2274.28,1723.23l3.818,-6.647l-7.659,0l3.841,6.647Z" style="fill:#b4b4b4;fill-rule:nonzero;"/><path d="M2274.28,1754.4l3.818,6.63l-7.659,0l3.841,-6.63Z" style="fill:#a091b7;fill-rule:nonzero;"/><path d="M2274.28,1761.97l3.818,6.63l-7.659,0l3.841,-6.63Z" style="fill:#a091b7;fill-rule:nonzero;"/><path d="M2274.28,1769.53l3.818,6.647l-7.659,0l3.841,-6.647Z" style="fill:#a091b7;fill-rule:nonzero;"/><path d="M2274.28,1777.1l3.818,6.631l-7.659,-0l3.841,-6.631Z" style="fill:#a091b7;fill-rule:nonzero;"/><path d="M2274.28,1784.65l3.818,6.647l-7.659,-0l3.841,-6.647Z" style="fill:#a091b7;fill-rule:nonzero;"/><path d="M2274.28,1882.08l3.818,-6.63l-7.659,-0l3.841,6.63Z" style="fill:#a091b7;fill-rule:nonzero;"/><path d="M2274.28,1874.53l3.818,-6.647l-7.659,-0l3.841,6.647Z" style="fill:#a091b7;fill-rule:nonzero;"/><path d="M2274.28,1866.96l3.818,-6.631l-7.659,0l3.841,6.631Z" style="fill:#a091b7;fill-rule:nonzero;"/><path d="M2274.28,1859.39l3.818,-6.63l-7.659,0l3.841,6.63Z" style="fill:#a091b7;fill-rule:nonzero;"/><path d="M2274.28,1851.83l3.818,-6.647l-7.659,-0l3.841,6.647Z" style="fill:#a091b7;fill-rule:nonzero;"/><path d="M2274.28,1883.01l3.818,6.631l-7.659,-0l3.841,-6.631Z" style="fill:#97bf8a;fill-rule:nonzero;"/><path d="M2274.28,1890.56l3.818,6.647l-7.659,-0l3.841,-6.647Z" style="fill:#97bf8a;fill-rule:nonzero;"/><path d="M2274.28,1898.13l3.818,6.631l-7.659,-0l3.841,-6.631Z" style="fill:#97bf8a;fill-rule:nonzero;"/><path d="M2274.28,1905.7l3.818,6.63l-7.659,0l3.841,-6.63Z" style="fill:#97bf8a;fill-rule:nonzero;"/><path d="M2274.28,1913.26l3.818,6.647l-7.659,-0l3.841,-6.647Z" style="fill:#97bf8a;fill-rule:nonzero;"/><path d="M2274.28,2010.67l3.818,-6.63l-7.659,-0l3.841,6.63Z" style="fill:#97bf8a;fill-rule:nonzero;"/><path d="M2274.28,2003.12l3.818,-6.647l-7.659,-0l3.841,6.647Z" style="fill:#97bf8a;fill-rule:nonzero;"/><path d="M2274.28,1995.55l3.818,-6.631l-7.659,0l3.841,6.631Z" style="fill:#97bf8a;fill-rule:nonzero;"/><path d="M2274.28,1988l3.818,-6.647l-7.659,0l3.841,6.647Z" style="fill:#97bf8a;fill-rule:nonzero;"/><path d="M2274.28,1980.42l3.818,-6.63l-7.659,-0l3.841,6.63Z" style="fill:#97bf8a;fill-rule:nonzero;"/><path d="M2274.28,2011.62l3.818,6.63l-7.659,0l3.841,-6.63Z" style="fill:#edd58a;fill-rule:nonzero;"/><path d="M2274.28,2019.17l3.818,6.647l-7.659,-0l3.841,-6.647Z" style="fill:#edd58a;fill-rule:nonzero;"/><path d="M2274.28,2026.74l3.818,6.63l-7.659,0l3.841,-6.63Z" style="fill:#edd58a;fill-rule:nonzero;"/><path d="M2274.28,2034.31l3.818,6.631l-7.659,-0l3.841,-6.631Z" style="fill:#edd58a;fill-rule:nonzero;"/><path d="M2274.28,2041.87l3.818,6.647l-7.659,0l3.841,-6.647Z" style="fill:#edd58a;fill-rule:nonzero;"/></g></svg>